<mxfile host="Electron" modified="2024-05-30T08:59:51.677Z" agent="Mozilla/5.0 (Windows NT 10.0; Win64; x64) AppleWebKit/537.36 (KHTML, like Gecko) draw.io/24.4.8 Chrome/124.0.6367.207 Electron/30.0.6 Safari/537.36" etag="8gSxmUynyopXs7uWNZFl" version="24.4.8" type="device">
  <diagram id="C5RBs43oDa-KdzZeNtuy" name="Page-1">
    <mxGraphModel dx="3187" dy="1858" grid="0" gridSize="10" guides="1" tooltips="1" connect="1" arrows="1" fold="1" page="1" pageScale="1" pageWidth="2339" pageHeight="3300" background="#ffffff" math="0" shadow="0">
      <root>
        <mxCell id="WIyWlLk6GJQsqaUBKTNV-0" />
        <mxCell id="WIyWlLk6GJQsqaUBKTNV-1" parent="WIyWlLk6GJQsqaUBKTNV-0" />
        <UserObject label="" tags="Фон" id="6K3tUPXFN7NIQfRX_CUn-0">
          <mxCell style="vsdxID=454;fillColor=none;gradientColor=none;strokeColor=none;strokeWidth=2;shadow=1;spacingTop=-1;spacingBottom=-1;spacingLeft=-1;spacingRight=-1;points=[];labelBackgroundColor=none;rounded=0;html=1;whiteSpace=wrap;movable=1;resizable=1;rotatable=1;deletable=1;editable=1;locked=0;connectable=1;fontFamily=isocpeur;fontStyle=2" parent="WIyWlLk6GJQsqaUBKTNV-1" vertex="1">
            <mxGeometry x="19" y="11" width="2278" height="3251" as="geometry" />
          </mxCell>
        </UserObject>
        <mxCell id="6K3tUPXFN7NIQfRX_CUn-1" value="&lt;div style=&quot;font-size: 1px&quot;&gt;&lt;font style=&quot;font-size: 28.08px; color: rgb(0, 0, 0); direction: ltr; letter-spacing: 0px; line-height: 120%; opacity: 1;&quot;&gt;&lt;span&gt;ГУИР 502900.&lt;/span&gt;&lt;span&gt;003 ПД&lt;/span&gt;&lt;/font&gt;&lt;font style=&quot;font-size: 28.08px; color: rgb(0, 0, 0); direction: ltr; letter-spacing: 0px; line-height: 120%; opacity: 1;&quot;&gt;&lt;span&gt;&lt;br&gt;&lt;/span&gt;&lt;/font&gt;&lt;/div&gt;" style="verticalAlign=middle;align=center;overflow=width;vsdxID=115;rotation=180;fillColor=none;gradientColor=none;shape=stencil(nZBLDoAgDERP0z3SIyjew0SURgSD+Lu9kMZoXLhwN9O+tukAlrNpJg1SzDH4QW/URgNYgZTkjA4UkwJUgGXng+6DX1zLfmoymdXo17xh5zmRJ6Q42BWCfc2oJfdAr+Yv+AP9Cb7OJ3H/2JG1HNGz/84klThPVCc=);strokeColor=#000000;strokeWidth=3;spacingTop=-3;spacingBottom=-3;spacingLeft=-3;spacingRight=-3;points=[];labelBackgroundColor=none;rounded=0;html=1;whiteSpace=wrap;movable=1;resizable=1;rotatable=1;deletable=1;editable=1;locked=0;connectable=1;fontFamily=isocpeur;fontStyle=2" parent="6K3tUPXFN7NIQfRX_CUn-0" vertex="1">
          <mxGeometry width="280" height="54.81963264077085" as="geometry" />
        </mxCell>
        <mxCell id="6K3tUPXFN7NIQfRX_CUn-2" style="vsdxID=435;fillColor=none;gradientColor=none;strokeColor=none;strokeWidth=3;spacingTop=-1;spacingBottom=-1;spacingLeft=-1;spacingRight=-1;points=[];labelBackgroundColor=none;rounded=0;html=1;whiteSpace=wrap;movable=1;resizable=1;rotatable=1;deletable=1;editable=1;locked=0;connectable=1;fontFamily=isocpeur;fontStyle=2" parent="6K3tUPXFN7NIQfRX_CUn-0" vertex="1">
          <mxGeometry x="1489" y="3034.6582354712436" width="789" height="216.34176452875639" as="geometry" />
        </mxCell>
        <mxCell id="6K3tUPXFN7NIQfRX_CUn-3" value="&lt;div style=&quot;font-size: 1px&quot;&gt;&lt;font style=&quot;font-size: 14.11px; color: rgb(0, 0, 0); direction: ltr; letter-spacing: 0px; line-height: 120%; opacity: 1;&quot;&gt;&lt;span&gt;Изм.&lt;br&gt;&lt;/span&gt;&lt;/font&gt;&lt;/div&gt;" style="verticalAlign=middle;align=center;overflow=width;vsdxID=33;fillColor=none;gradientColor=none;shape=stencil(nZBLDoAgDERP0z3SIyjew0SURgSD+Lu9kMZoXLhwN9O+tukAlrNpJg1SzDH4QW/URgNYgZTkjA4UkwJUgGXng+6DX1zLfmoymdXo17xh5zmRJ6Q42BWCfc2oJfdAr+Yv+AP9Cb7OJ3H/2JG1HNGz/84klThPVCc=);strokeColor=none;strokeWidth=3;spacingTop=-2;spacingBottom=-2;spacingLeft=-2;spacingRight=-2;points=[];labelBackgroundColor=none;rounded=0;html=1;whiteSpace=wrap;movable=1;resizable=1;rotatable=1;deletable=1;editable=1;locked=0;connectable=1;fontFamily=isocpeur;fontStyle=2" parent="6K3tUPXFN7NIQfRX_CUn-2" vertex="1">
          <mxGeometry x="31" y="78.31" width="28" height="15.69" as="geometry" />
        </mxCell>
        <mxCell id="6K3tUPXFN7NIQfRX_CUn-4" value="&lt;div style=&quot;font-size: 1px&quot;&gt;&lt;font style=&quot;font-size: 14.11px; color: rgb(0, 0, 0); direction: ltr; letter-spacing: 0px; line-height: 120%; opacity: 1;&quot;&gt;&lt;span&gt;Лист&lt;br&gt;&lt;/span&gt;&lt;/font&gt;&lt;/div&gt;" style="verticalAlign=middle;align=center;overflow=width;vsdxID=34;fillColor=none;gradientColor=none;shape=stencil(nZBLDoAgDERP0z3SIyjew0SURgSD+Lu9kMZoXLhwN9O+tukAlrNpJg1SzDH4QW/URgNYgZTkjA4UkwJUgGXng+6DX1zLfmoymdXo17xh5zmRJ6Q42BWCfc2oJfdAr+Yv+AP9Cb7OJ3H/2JG1HNGz/84klThPVCc=);strokeColor=none;strokeWidth=3;spacingTop=-2;spacingBottom=-2;spacingLeft=-2;spacingRight=-2;points=[];labelBackgroundColor=none;rounded=0;html=1;whiteSpace=wrap;movable=1;resizable=1;rotatable=1;deletable=1;editable=1;locked=0;connectable=1;fontFamily=isocpeur;fontStyle=2" parent="6K3tUPXFN7NIQfRX_CUn-2" vertex="1">
          <mxGeometry x="56" y="78.31" width="48" height="21.69" as="geometry" />
        </mxCell>
        <mxCell id="6K3tUPXFN7NIQfRX_CUn-5" value="&lt;div style=&quot;font-size: 1px&quot;&gt;&lt;font style=&quot;font-size: 14.11px; color: rgb(0, 0, 0); direction: ltr; letter-spacing: 0px; line-height: 120%; opacity: 1;&quot;&gt;&lt;span&gt;Подп.&lt;br&gt;&lt;/span&gt;&lt;/font&gt;&lt;/div&gt;" style="verticalAlign=middle;align=center;overflow=width;vsdxID=36;fillColor=none;gradientColor=none;shape=stencil(nZBLDoAgDERP0z3SIyjew0SURgSD+Lu9kMZoXLhwN9O+tukAlrNpJg1SzDH4QW/URgNYgZTkjA4UkwJUgGXng+6DX1zLfmoymdXo17xh5zmRJ6Q42BWCfc2oJfdAr+Yv+AP9Cb7OJ3H/2JG1HNGz/84klThPVCc=);strokeColor=none;strokeWidth=3;spacingTop=-2;spacingBottom=-2;spacingLeft=-2;spacingRight=-2;points=[];labelBackgroundColor=none;rounded=0;html=1;whiteSpace=wrap;movable=1;resizable=1;rotatable=1;deletable=1;editable=1;locked=0;connectable=1;fontFamily=isocpeur;fontStyle=2" parent="6K3tUPXFN7NIQfRX_CUn-2" vertex="1">
          <mxGeometry x="170" y="78.31" width="104" height="21.69" as="geometry" />
        </mxCell>
        <mxCell id="6K3tUPXFN7NIQfRX_CUn-6" value="&lt;div style=&quot;font-size: 1px&quot;&gt;&lt;font style=&quot;font-size: 14.11px; color: rgb(0, 0, 0); direction: ltr; letter-spacing: 0px; line-height: 120%; opacity: 1;&quot;&gt;&lt;span&gt;Дата&lt;br&gt;&lt;/span&gt;&lt;/font&gt;&lt;/div&gt;" style="verticalAlign=middle;align=center;overflow=width;vsdxID=37;fillColor=none;gradientColor=none;shape=stencil(nZBLDoAgDERP0z3SIyjew0SURgSD+Lu9kMZoXLhwN9O+tukAlrNpJg1SzDH4QW/URgNYgZTkjA4UkwJUgGXng+6DX1zLfmoymdXo17xh5zmRJ6Q42BWCfc2oJfdAr+Yv+AP9Cb7OJ3H/2JG1HNGz/84klThPVCc=);strokeColor=none;strokeWidth=3;spacingTop=-2;spacingBottom=-2;spacingLeft=-2;spacingRight=-2;points=[];labelBackgroundColor=none;rounded=0;html=1;whiteSpace=wrap;movable=1;resizable=1;rotatable=1;deletable=1;editable=1;locked=0;connectable=1;fontFamily=isocpeur;fontStyle=2" parent="6K3tUPXFN7NIQfRX_CUn-2" vertex="1">
          <mxGeometry x="255" y="78.31376091538692" width="40" height="17.62059620596206" as="geometry" />
        </mxCell>
        <mxCell id="6K3tUPXFN7NIQfRX_CUn-7" value="&lt;div style=&quot;font-size: 1px&quot;&gt;&lt;font style=&quot;font-size: 14.11px; color: rgb(0, 0, 0); direction: ltr; letter-spacing: 0px; line-height: 120%; opacity: 1;&quot;&gt;&lt;span&gt;Разраб.&lt;br&gt;&lt;/span&gt;&lt;/font&gt;&lt;/div&gt;" style="verticalAlign=middle;align=center;overflow=width;vsdxID=38;fillColor=none;gradientColor=none;shape=stencil(nZBLDoAgDERP0z3SIyjew0SURgSD+Lu9kMZoXLhwN9O+tukAlrNpJg1SzDH4QW/URgNYgZTkjA4UkwJUgGXng+6DX1zLfmoymdXo17xh5zmRJ6Q42BWCfc2oJfdAr+Yv+AP9Cb7OJ3H/2JG1HNGz/84klThPVCc=);strokeColor=none;strokeWidth=3;spacingTop=-2;spacingBottom=-2;spacingLeft=-2;spacingRight=-2;points=[];labelBackgroundColor=none;rounded=0;html=1;whiteSpace=wrap;movable=1;resizable=1;rotatable=1;deletable=1;editable=1;locked=0;connectable=1;fontFamily=isocpeur;fontStyle=2" parent="6K3tUPXFN7NIQfRX_CUn-2" vertex="1">
          <mxGeometry x="10" y="97.89220114423365" width="104" height="19.57844022884673" as="geometry" />
        </mxCell>
        <mxCell id="6K3tUPXFN7NIQfRX_CUn-8" value="&lt;div style=&quot;font-size: 1px&quot;&gt;&lt;font style=&quot;font-size: 14.11px; color: rgb(0, 0, 0); direction: ltr; letter-spacing: 0px; line-height: 120%; opacity: 1;&quot;&gt;&lt;span&gt;Пров.&lt;br&gt;&lt;/span&gt;&lt;/font&gt;&lt;/div&gt;" style="verticalAlign=middle;align=center;overflow=width;vsdxID=39;fillColor=none;gradientColor=none;shape=stencil(nZBLDoAgDERP0z3SIyjew0SURgSD+Lu9kMZoXLhwN9O+tukAlrNpJg1SzDH4QW/URgNYgZTkjA4UkwJUgGXng+6DX1zLfmoymdXo17xh5zmRJ6Q42BWCfc2oJfdAr+Yv+AP9Cb7OJ3H/2JG1HNGz/84klThPVCc=);strokeColor=none;strokeWidth=3;spacingTop=-2;spacingBottom=-2;spacingLeft=-2;spacingRight=-2;points=[];labelBackgroundColor=none;rounded=0;html=1;whiteSpace=wrap;movable=1;resizable=1;rotatable=1;deletable=1;editable=1;locked=0;connectable=1;fontFamily=isocpeur;fontStyle=2" parent="6K3tUPXFN7NIQfRX_CUn-2" vertex="1">
          <mxGeometry x="3" y="117.47" width="104" height="17.53" as="geometry" />
        </mxCell>
        <mxCell id="6K3tUPXFN7NIQfRX_CUn-9" value="&lt;div style=&quot;font-size: 1px&quot;&gt;&lt;font style=&quot;font-size: 14.11px; color: rgb(0, 0, 0); direction: ltr; letter-spacing: 0px; line-height: 120%; opacity: 1;&quot;&gt;&lt;span&gt;Т. контр.&lt;br&gt;&lt;/span&gt;&lt;/font&gt;&lt;/div&gt;" style="verticalAlign=middle;align=center;overflow=width;vsdxID=40;fillColor=none;gradientColor=none;shape=stencil(nZBLDoAgDERP0z3SIyjew0SURgSD+Lu9kMZoXLhwN9O+tukAlrNpJg1SzDH4QW/URgNYgZTkjA4UkwJUgGXng+6DX1zLfmoymdXo17xh5zmRJ6Q42BWCfc2oJfdAr+Yv+AP9Cb7OJ3H/2JG1HNGz/84klThPVCc=);strokeColor=none;strokeWidth=3;spacingTop=-2;spacingBottom=-2;spacingLeft=-2;spacingRight=-2;points=[];labelBackgroundColor=none;rounded=0;html=1;whiteSpace=wrap;movable=1;resizable=1;rotatable=1;deletable=1;editable=1;locked=0;connectable=1;fontFamily=isocpeur;fontStyle=2" parent="6K3tUPXFN7NIQfRX_CUn-2" vertex="1">
          <mxGeometry x="14" y="138.02800361336946" width="104" height="18.599518217404395" as="geometry" />
        </mxCell>
        <mxCell id="6K3tUPXFN7NIQfRX_CUn-10" value="&lt;div style=&quot;font-size: 1px&quot;&gt;&lt;font style=&quot;font-size: 14.11px; color: rgb(0, 0, 0); direction: ltr; letter-spacing: 0px; line-height: 120%; opacity: 1;&quot;&gt;&lt;span&gt;Н. контр.&lt;br&gt;&lt;/span&gt;&lt;/font&gt;&lt;/div&gt;" style="verticalAlign=middle;align=center;overflow=width;vsdxID=41;fillColor=none;gradientColor=none;shape=stencil(nZBLDoAgDERP0z3SIyjew0SURgSD+Lu9kMZoXLhwN9O+tukAlrNpJg1SzDH4QW/URgNYgZTkjA4UkwJUgGXng+6DX1zLfmoymdXo17xh5zmRJ6Q42BWCfc2oJfdAr+Yv+AP9Cb7OJ3H/2JG1HNGz/84klThPVCc=);strokeColor=none;strokeWidth=3;spacingTop=-2;spacingBottom=-2;spacingLeft=-2;spacingRight=-2;points=[];labelBackgroundColor=none;rounded=0;html=1;whiteSpace=wrap;movable=1;resizable=1;rotatable=1;deletable=1;editable=1;locked=0;connectable=1;fontFamily=isocpeur;fontStyle=2" parent="6K3tUPXFN7NIQfRX_CUn-2" vertex="1">
          <mxGeometry x="16" y="176.2059620596206" width="104" height="19.57844022884673" as="geometry" />
        </mxCell>
        <mxCell id="6K3tUPXFN7NIQfRX_CUn-11" value="&lt;div style=&quot;font-size: 1px&quot;&gt;&lt;font style=&quot;font-size: 14.11px; color: rgb(0, 0, 0); direction: ltr; letter-spacing: 0px; line-height: 120%; opacity: 1;&quot;&gt;&lt;i&gt;Утв.&lt;br&gt;&lt;/i&gt;&lt;/font&gt;&lt;/div&gt;" style="verticalAlign=middle;align=center;overflow=width;vsdxID=42;fillColor=none;gradientColor=none;shape=stencil(nZBLDoAgDERP0z3SIyjew0SURgSD+Lu9kMZoXLhwN9O+tukAlrNpJg1SzDH4QW/URgNYgZTkjA4UkwJUgGXng+6DX1zLfmoymdXo17xh5zmRJ6Q42BWCfc2oJfdAr+Yv+AP9Cb7OJ3H/2JG1HNGz/84klThPVCc=);strokeColor=none;strokeWidth=3;spacingTop=-2;spacingBottom=-2;spacingLeft=-2;spacingRight=-2;points=[];labelBackgroundColor=none;rounded=0;html=1;whiteSpace=wrap;movable=0;resizable=0;rotatable=0;deletable=0;editable=0;locked=1;connectable=0;" parent="6K3tUPXFN7NIQfRX_CUn-2" vertex="1">
          <mxGeometry y="196.76332429990964" width="104" height="18.599518217404395" as="geometry" />
        </mxCell>
        <mxCell id="6K3tUPXFN7NIQfRX_CUn-12" value="&lt;div style=&quot;font-size: 1px&quot;&gt;&lt;font style=&quot;font-size: 14.11px; color: rgb(0, 0, 0); direction: ltr; letter-spacing: 0px; line-height: 120%; opacity: 1;&quot;&gt;&lt;span&gt;Лит.&lt;br&gt;&lt;/span&gt;&lt;/font&gt;&lt;/div&gt;" style="verticalAlign=middle;align=center;overflow=width;vsdxID=44;fillColor=none;gradientColor=none;shape=stencil(nZBLDoAgDERP0z3SIyjew0SURgSD+Lu9kMZoXLhwN9O+tukAlrNpJg1SzDH4QW/URgNYgZTkjA4UkwJUgGXng+6DX1zLfmoymdXo17xh5zmRJ6Q42BWCfc2oJfdAr+Yv+AP9Cb7OJ3H/2JG1HNGz/84klThPVCc=);strokeColor=none;strokeWidth=3;spacingTop=-2;spacingBottom=-2;spacingLeft=-2;spacingRight=-2;points=[];labelBackgroundColor=none;rounded=0;html=1;whiteSpace=wrap;movable=1;resizable=1;rotatable=1;deletable=1;editable=1;locked=0;connectable=1;fontFamily=isocpeur;fontStyle=2" parent="6K3tUPXFN7NIQfRX_CUn-2" vertex="1">
          <mxGeometry x="552" y="58.74" width="104" height="21.26" as="geometry" />
        </mxCell>
        <mxCell id="6K3tUPXFN7NIQfRX_CUn-13" value="&lt;div style=&quot;font-size: 1px&quot;&gt;&lt;font style=&quot;font-size: 14.11px; color: rgb(0, 0, 0); direction: ltr; letter-spacing: 0px; line-height: 120%; opacity: 1;&quot;&gt;&lt;span&gt;Масса&lt;br&gt;&lt;/span&gt;&lt;/font&gt;&lt;/div&gt;" style="verticalAlign=middle;align=center;overflow=width;vsdxID=45;fillColor=none;gradientColor=none;shape=stencil(nZBLDoAgDERP0z3SIyjew0SURgSD+Lu9kMZoXLhwN9O+tukAlrNpJg1SzDH4QW/URgNYgZTkjA4UkwJUgGXng+6DX1zLfmoymdXo17xh5zmRJ6Q42BWCfc2oJfdAr+Yv+AP9Cb7OJ3H/2JG1HNGz/84klThPVCc=);strokeColor=none;strokeWidth=3;spacingTop=-2;spacingBottom=-2;spacingLeft=-2;spacingRight=-2;points=[];labelBackgroundColor=none;rounded=0;html=1;whiteSpace=wrap;movable=1;resizable=1;rotatable=1;deletable=1;editable=1;locked=0;connectable=1;fontFamily=isocpeur;fontStyle=2" parent="6K3tUPXFN7NIQfRX_CUn-2" vertex="1">
          <mxGeometry x="614" y="58.74" width="104" height="21.26" as="geometry" />
        </mxCell>
        <mxCell id="6K3tUPXFN7NIQfRX_CUn-14" value="&lt;div style=&quot;font-size: 1px&quot;&gt;&lt;font style=&quot;font-size: 14.11px; color: rgb(0, 0, 0); direction: ltr; letter-spacing: 0px; line-height: 120%; opacity: 1;&quot;&gt;&lt;span&gt;Масштаб&lt;br&gt;&lt;/span&gt;&lt;/font&gt;&lt;/div&gt;" style="verticalAlign=middle;align=center;overflow=width;vsdxID=46;fillColor=none;gradientColor=none;shape=stencil(nZBLDoAgDERP0z3SIyjew0SURgSD+Lu9kMZoXLhwN9O+tukAlrNpJg1SzDH4QW/URgNYgZTkjA4UkwJUgGXng+6DX1zLfmoymdXo17xh5zmRJ6Q42BWCfc2oJfdAr+Yv+AP9Cb7OJ3H/2JG1HNGz/84klThPVCc=);strokeColor=none;strokeWidth=3;spacingTop=-2;spacingBottom=-2;spacingLeft=-2;spacingRight=-2;points=[];labelBackgroundColor=none;rounded=0;html=1;whiteSpace=wrap;movable=1;resizable=1;rotatable=1;deletable=1;editable=1;locked=0;connectable=1;fontFamily=isocpeur;fontStyle=2" parent="6K3tUPXFN7NIQfRX_CUn-2" vertex="1">
          <mxGeometry x="684" y="58.74" width="104" height="21.26" as="geometry" />
        </mxCell>
        <mxCell id="6K3tUPXFN7NIQfRX_CUn-15" value="&lt;div style=&quot;font-size: 1px&quot;&gt;&lt;font style=&quot;font-size: 14.11px; color: rgb(0, 0, 0); direction: ltr; letter-spacing: 0px; line-height: 120%; opacity: 1;&quot;&gt;&lt;span&gt;Лист 1&lt;br&gt;&lt;/span&gt;&lt;/font&gt;&lt;/div&gt;" style="verticalAlign=middle;align=center;overflow=width;vsdxID=47;fillColor=none;gradientColor=none;shape=stencil(nZBLDoAgDERP0z3SIyjew0SURgSD+Lu9kMZoXLhwN9O+tukAlrNpJg1SzDH4QW/URgNYgZTkjA4UkwJUgGXng+6DX1zLfmoymdXo17xh5zmRJ6Q42BWCfc2oJfdAr+Yv+AP9Cb7OJ3H/2JG1HNGz/84klThPVCc=);strokeColor=none;strokeWidth=3;spacingTop=-2;spacingBottom=-2;spacingLeft=-2;spacingRight=-2;points=[];labelBackgroundColor=none;rounded=0;html=1;whiteSpace=wrap;movable=1;resizable=1;rotatable=1;deletable=1;editable=1;locked=0;connectable=1;fontFamily=isocpeur;fontStyle=2" parent="6K3tUPXFN7NIQfRX_CUn-2" vertex="1">
          <mxGeometry x="563" y="137.05" width="104" height="12.95" as="geometry" />
        </mxCell>
        <mxCell id="6K3tUPXFN7NIQfRX_CUn-16" value="&lt;div style=&quot;font-size: 1px&quot;&gt;&lt;font style=&quot;font-size: 14.11px; color: rgb(0, 0, 0); direction: ltr; letter-spacing: 0px; line-height: 120%; opacity: 1;&quot;&gt;&lt;span&gt;Листов&lt;br&gt;&lt;/span&gt;&lt;/font&gt;&lt;/div&gt;" style="verticalAlign=middle;align=center;overflow=width;vsdxID=48;fillColor=none;gradientColor=none;shape=stencil(nZBLDoAgDERP0z3SIyjew0SURgSD+Lu9kMZoXLhwN9O+tukAlrNpJg1SzDH4QW/URgNYgZTkjA4UkwJUgGXng+6DX1zLfmoymdXo17xh5zmRJ6Q42BWCfc2oJfdAr+Yv+AP9Cb7OJ3H/2JG1HNGz/84klThPVCc=);strokeColor=none;strokeWidth=3;spacingTop=-2;spacingBottom=-2;spacingLeft=-2;spacingRight=-2;points=[];labelBackgroundColor=none;rounded=0;html=1;whiteSpace=wrap;movable=1;resizable=1;rotatable=1;deletable=1;editable=1;locked=0;connectable=1;fontFamily=isocpeur;fontStyle=2" parent="6K3tUPXFN7NIQfRX_CUn-2" vertex="1">
          <mxGeometry x="660" y="137.05" width="104" height="22.95" as="geometry" />
        </mxCell>
        <mxCell id="6K3tUPXFN7NIQfRX_CUn-17" value="&lt;div style=&quot;font-size: 1px&quot;&gt;&lt;font style=&quot;font-size: 14.11px; color: rgb(0, 0, 0); direction: ltr; letter-spacing: 0px; line-height: 120%; opacity: 1;&quot;&gt;&lt;span&gt;T&lt;br&gt;&lt;/span&gt;&lt;/font&gt;&lt;/div&gt;" style="verticalAlign=middle;align=center;overflow=width;vsdxID=49;fillColor=none;gradientColor=none;shape=stencil(nZBLDoAgDERP0z3SIyjew0SURgSD+Lu9kMZoXLhwN9O+tukAlrNpJg1SzDH4QW/URgNYgZTkjA4UkwJUgGXng+6DX1zLfmoymdXo17xh5zmRJ6Q42BWCfc2oJfdAr+Yv+AP9Cb7OJ3H/2JG1HNGz/84klThPVCc=);strokeColor=none;strokeWidth=3;points=[];labelBackgroundColor=none;rounded=0;html=1;whiteSpace=wrap;movable=1;resizable=1;rotatable=1;deletable=1;editable=1;locked=0;connectable=1;fontFamily=isocpeur;fontStyle=2" parent="6K3tUPXFN7NIQfRX_CUn-2" vertex="1">
          <mxGeometry x="586" y="87.12405901836796" width="32" height="39.15688045769346" as="geometry" />
        </mxCell>
        <mxCell id="6K3tUPXFN7NIQfRX_CUn-18" value="&lt;div style=&quot;font-size: 1px&quot;&gt;&lt;font style=&quot;font-size: 14.11px; color: rgb(0, 0, 0); direction: ltr; letter-spacing: 0px; line-height: 120%; opacity: 1;&quot;&gt;&lt;span&gt;1&lt;br&gt;&lt;/span&gt;&lt;/font&gt;&lt;/div&gt;" style="verticalAlign=middle;align=center;overflow=width;vsdxID=55;fillColor=none;gradientColor=none;shape=stencil(nZBLDoAgDERP0z3SIyjew0SURgSD+Lu9kMZoXLhwN9O+tukAlrNpJg1SzDH4QW/URgNYgZTkjA4UkwJUgGXng+6DX1zLfmoymdXo17xh5zmRJ6Q42BWCfc2oJfdAr+Yv+AP9Cb7OJ3H/2JG1HNGz/84klThPVCc=);strokeColor=none;strokeWidth=3;spacingTop=-2;spacingBottom=-2;spacingLeft=-2;spacingRight=-2;points=[];labelBackgroundColor=none;rounded=0;html=1;whiteSpace=wrap;movable=1;resizable=1;rotatable=1;deletable=1;editable=1;locked=0;connectable=1;fontFamily=isocpeur;fontStyle=2" parent="6K3tUPXFN7NIQfRX_CUn-2" vertex="1">
          <mxGeometry x="746" y="137.04908160192713" width="14" height="20.55736224028907" as="geometry" />
        </mxCell>
        <mxCell id="6K3tUPXFN7NIQfRX_CUn-19" value="&lt;div style=&quot;font-size: 1px&quot;&gt;&lt;font style=&quot;font-size: 14.11px; color: rgb(0, 0, 0); direction: ltr; letter-spacing: 0px; line-height: 120%; opacity: 1;&quot;&gt;&lt;span&gt;Реценз.&lt;br&gt;&lt;/span&gt;&lt;/font&gt;&lt;/div&gt;" style="verticalAlign=middle;align=center;overflow=width;vsdxID=56;fillColor=none;gradientColor=none;shape=stencil(nZBLDoAgDERP0z3SIyjew0SURgSD+Lu9kMZoXLhwN9O+tukAlrNpJg1SzDH4QW/URgNYgZTkjA4UkwJUgGXng+6DX1zLfmoymdXo17xh5zmRJ6Q42BWCfc2oJfdAr+Yv+AP9Cb7OJ3H/2JG1HNGz/84klThPVCc=);strokeColor=none;strokeWidth=3;spacingTop=-2;spacingBottom=-2;spacingLeft=-2;spacingRight=-2;points=[];labelBackgroundColor=none;rounded=0;html=1;whiteSpace=wrap;movable=1;resizable=1;rotatable=1;deletable=1;editable=1;locked=0;connectable=1;fontFamily=isocpeur;fontStyle=2" parent="6K3tUPXFN7NIQfRX_CUn-2" vertex="1">
          <mxGeometry x="10" y="156.62752183077384" width="104" height="19.57844022884673" as="geometry" />
        </mxCell>
        <mxCell id="6K3tUPXFN7NIQfRX_CUn-20" value="&lt;div style=&quot;font-size: 1px&quot;&gt;&lt;p style=&quot;text-align:center;margin-left:0;margin-right:0;margin-top:0px;margin-bottom:0px;text-indent:0;vertical-align:middle;direction:ltr;&quot;&gt;&lt;font style=&quot;font-size: 25.4px; color: rgb(0, 0, 0); direction: ltr; letter-spacing: 0px; line-height: 120%; opacity: 1;&quot;&gt;&lt;span&gt;ИПиЭ, гр.010902&lt;/span&gt;&lt;/font&gt;&lt;font style=&quot;font-size: 25.4px; color: rgb(0, 0, 0); direction: ltr; letter-spacing: 0px; line-height: 120%; opacity: 1;&quot;&gt;&lt;span&gt;&lt;br&gt;&lt;/span&gt;&lt;/font&gt;&lt;/p&gt;&lt;/div&gt;" style="verticalAlign=middle;align=center;overflow=width;vsdxID=57;fillColor=none;gradientColor=none;shape=stencil(nZBLDoAgDERP0z3SIyjew0SURgSD+Lu9kMZoXLhwN9O+tukAlrNpJg1SzDH4QW/URgNYgZTkjA4UkwJUgGXng+6DX1zLfmoymdXo17xh5zmRJ6Q42BWCfc2oJfdAr+Yv+AP9Cb7OJ3H/2JG1HNGz/84klThPVCc=);strokeColor=none;strokeWidth=3;points=[];labelBackgroundColor=none;rounded=0;html=1;whiteSpace=wrap;movable=1;resizable=1;rotatable=1;deletable=1;editable=1;locked=0;connectable=1;fontFamily=isocpeur;fontStyle=2" parent="6K3tUPXFN7NIQfRX_CUn-2" vertex="1">
          <mxGeometry x="576" y="157.60644384221618" width="199" height="58.7353206865402" as="geometry" />
        </mxCell>
        <mxCell id="6K3tUPXFN7NIQfRX_CUn-21" value="&lt;div style=&quot;font-size: 1px&quot;&gt;&lt;font style=&quot;font-size: 14.11px; color: rgb(0, 0, 0); direction: ltr; letter-spacing: 0px; line-height: 120%; opacity: 1;&quot;&gt;&lt;span&gt;N &lt;/span&gt;&lt;/font&gt;&lt;font style=&quot;font-size: 14.11px; color: rgb(0, 0, 0); direction: ltr; letter-spacing: 0px; line-height: 120%; opacity: 1;&quot;&gt;&lt;span&gt;докум.&lt;/span&gt;&lt;/font&gt;&lt;font style=&quot;font-size: 14.11px; color: rgb(0, 0, 0); direction: ltr; letter-spacing: 0px; line-height: 120%; opacity: 1;&quot;&gt;&lt;span&gt;&lt;br&gt;&lt;/span&gt;&lt;/font&gt;&lt;/div&gt;" style="verticalAlign=middle;align=center;overflow=width;vsdxID=350;fillColor=none;gradientColor=none;shape=stencil(nZBLDoAgDERP0z3SIyjew0SURgSD+Lu9kMZoXLhwN9O+tukAlrNpJg1SzDH4QW/URgNYgZTkjA4UkwJUgGXng+6DX1zLfmoymdXo17xh5zmRJ6Q42BWCfc2oJfdAr+Yv+AP9Cb7OJ3H/2JG1HNGz/84klThPVCc=);strokeColor=none;strokeWidth=3;spacingTop=-2;spacingBottom=-2;spacingLeft=-2;spacingRight=-2;points=[];labelBackgroundColor=none;rounded=0;html=1;whiteSpace=wrap;movable=1;resizable=1;rotatable=1;deletable=1;editable=1;locked=0;connectable=1;fontFamily=isocpeur;fontStyle=2" parent="6K3tUPXFN7NIQfRX_CUn-2" vertex="1">
          <mxGeometry x="100" y="76.35591689250225" width="96" height="19.57844022884673" as="geometry" />
        </mxCell>
        <mxCell id="6K3tUPXFN7NIQfRX_CUn-22" value="&lt;div style=&quot;font-size: 1px&quot;&gt;&lt;p style=&quot;text-align:left;margin-left:0;margin-right:0;margin-top:0px;margin-bottom:0px;text-indent:0;vertical-align:middle;direction:ltr;&quot;&gt;&lt;font style=&quot;font-size: 16.93px; color: rgb(0, 0, 0); direction: ltr; letter-spacing: 0px; line-height: 120%; opacity: 1;&quot;&gt;&lt;span&gt;Казак&lt;br&gt;&lt;/span&gt;&lt;/font&gt;&lt;/p&gt;&lt;/div&gt;" style="verticalAlign=middle;align=left;overflow=width;vsdxID=434;fillColor=none;gradientColor=none;shape=stencil(nZBLDoAgDERP0z3SIyjew0SURgSD+Lu9kMZoXLhwN9O+tukAlrNpJg1SzDH4QW/URgNYgZTkjA4UkwJUgGXng+6DX1zLfmoymdXo17xh5zmRJ6Q42BWCfc2oJfdAr+Yv+AP9Cb7OJ3H/2JG1HNGz/84klThPVCc=);strokeColor=none;strokeWidth=3;spacingTop=-2;spacingBottom=-2;spacingLeft=-2;spacingRight=-2;points=[];labelBackgroundColor=none;rounded=0;html=1;whiteSpace=wrap;movable=1;resizable=1;rotatable=1;deletable=1;editable=1;locked=0;connectable=1;fontFamily=isocpeur;fontStyle=2" parent="6K3tUPXFN7NIQfRX_CUn-2" vertex="1">
          <mxGeometry x="106" y="195.7844022884673" width="98" height="19.57844022884673" as="geometry" />
        </mxCell>
        <UserObject label="" tags="Фон" id="6K3tUPXFN7NIQfRX_CUn-23">
          <mxCell style="vsdxID=5;edgeStyle=none;startArrow=none;endArrow=none;startSize=3;endSize=3;strokeWidth=3;strokeColor=#000000;spacingTop=-2;spacingBottom=-2;spacingLeft=-2;spacingRight=-2;verticalAlign=middle;html=1;labelBackgroundColor=#ffffff;rounded=0;movable=1;resizable=1;rotatable=1;deletable=1;editable=1;locked=0;connectable=1;fontFamily=isocpeur;fontStyle=2" parent="6K3tUPXFN7NIQfRX_CUn-2" edge="1">
            <mxGeometry relative="1" as="geometry">
              <Array as="points" />
              <mxPoint x="574" y="78.31376091538692" as="sourcePoint" />
              <mxPoint x="574" y="215.36284251731405" as="targetPoint" />
            </mxGeometry>
          </mxCell>
        </UserObject>
        <UserObject label="" tags="Фон" id="6K3tUPXFN7NIQfRX_CUn-24">
          <mxCell style="vsdxID=6;edgeStyle=none;startArrow=none;endArrow=none;startSize=3;endSize=3;strokeWidth=3;strokeColor=#000000;spacingTop=-2;spacingBottom=-2;spacingLeft=-2;spacingRight=-2;verticalAlign=middle;html=1;labelBackgroundColor=#ffffff;rounded=0;movable=1;resizable=1;rotatable=1;deletable=1;editable=1;locked=0;connectable=1;fontFamily=isocpeur;fontStyle=2" parent="6K3tUPXFN7NIQfRX_CUn-2" edge="1">
            <mxGeometry relative="1" as="geometry">
              <Array as="points" />
              <mxPoint x="574" y="78.31376091538692" as="sourcePoint" />
              <mxPoint x="774" y="78.31376091538692" as="targetPoint" />
            </mxGeometry>
          </mxCell>
        </UserObject>
        <UserObject label="" tags="Фон" id="6K3tUPXFN7NIQfRX_CUn-25">
          <mxCell style="vsdxID=7;edgeStyle=none;startArrow=none;endArrow=none;startSize=3;endSize=3;strokeWidth=3;strokeColor=#000000;spacingTop=-2;spacingBottom=-2;spacingLeft=-2;spacingRight=-2;verticalAlign=middle;html=1;labelBackgroundColor=#ffffff;rounded=0;movable=1;resizable=1;rotatable=1;deletable=1;editable=1;locked=0;connectable=1;fontFamily=isocpeur;fontStyle=2" parent="6K3tUPXFN7NIQfRX_CUn-2" edge="1">
            <mxGeometry relative="1" as="geometry">
              <Array as="points" />
              <mxPoint x="774" y="156.62752183077384" as="sourcePoint" />
              <mxPoint x="574" y="156.62752183077384" as="targetPoint" />
            </mxGeometry>
          </mxCell>
        </UserObject>
        <UserObject label="" tags="Фон" id="6K3tUPXFN7NIQfRX_CUn-26">
          <mxCell style="vsdxID=8;edgeStyle=none;startArrow=none;endArrow=none;startSize=3;endSize=3;strokeWidth=3;strokeColor=#000000;spacingTop=-2;spacingBottom=-2;spacingLeft=-2;spacingRight=-2;verticalAlign=middle;html=1;labelBackgroundColor=#ffffff;rounded=0;movable=1;resizable=1;rotatable=1;deletable=1;editable=1;locked=0;connectable=1;fontFamily=isocpeur;fontStyle=2" parent="6K3tUPXFN7NIQfRX_CUn-2" edge="1">
            <mxGeometry relative="1" as="geometry">
              <Array as="points" />
              <mxPoint x="654" y="137.04908160192713" as="sourcePoint" />
              <mxPoint x="654" y="156.62752183077384" as="targetPoint" />
            </mxGeometry>
          </mxCell>
        </UserObject>
        <UserObject label="" tags="Фон" id="6K3tUPXFN7NIQfRX_CUn-27">
          <mxCell style="vsdxID=9;edgeStyle=none;startArrow=none;endArrow=none;startSize=3;endSize=3;strokeWidth=3;strokeColor=#000000;spacingTop=-2;spacingBottom=-2;spacingLeft=-2;spacingRight=-2;verticalAlign=middle;html=1;labelBackgroundColor=#ffffff;rounded=0;movable=1;resizable=1;rotatable=1;deletable=1;editable=1;locked=0;connectable=1;fontFamily=isocpeur;fontStyle=2" parent="6K3tUPXFN7NIQfRX_CUn-2" edge="1">
            <mxGeometry relative="1" as="geometry">
              <Array as="points" />
              <mxPoint x="702" y="58.7353206865402" as="sourcePoint" />
              <mxPoint x="702" y="117.4706413730804" as="targetPoint" />
            </mxGeometry>
          </mxCell>
        </UserObject>
        <UserObject label="" tags="Фон" id="6K3tUPXFN7NIQfRX_CUn-28">
          <mxCell style="vsdxID=10;edgeStyle=none;startArrow=none;endArrow=none;startSize=3;endSize=3;strokeWidth=3;strokeColor=#000000;spacingTop=-2;spacingBottom=-2;spacingLeft=-2;spacingRight=-2;verticalAlign=middle;html=1;labelBackgroundColor=#ffffff;rounded=0;movable=1;resizable=1;rotatable=1;deletable=1;editable=1;locked=0;connectable=1;fontFamily=isocpeur;fontStyle=2" parent="6K3tUPXFN7NIQfRX_CUn-2" edge="1">
            <mxGeometry relative="1" as="geometry">
              <Array as="points" />
              <mxPoint x="574" y="137.04908160192713" as="sourcePoint" />
              <mxPoint x="774" y="137.04908160192713" as="targetPoint" />
            </mxGeometry>
          </mxCell>
        </UserObject>
        <UserObject label="" tags="Фон" id="6K3tUPXFN7NIQfRX_CUn-29">
          <mxCell style="vsdxID=11;edgeStyle=none;startArrow=none;endArrow=none;startSize=3;endSize=3;strokeWidth=3;strokeColor=#000000;spacingTop=-2;spacingBottom=-2;spacingLeft=-2;spacingRight=-2;verticalAlign=middle;html=1;labelBackgroundColor=#ffffff;rounded=0;movable=1;resizable=1;rotatable=1;deletable=1;editable=1;locked=0;connectable=1;fontFamily=isocpeur;fontStyle=2" parent="6K3tUPXFN7NIQfRX_CUn-2" edge="1">
            <mxGeometry relative="1" as="geometry">
              <Array as="points" />
              <mxPoint x="702" y="117.4706413730804" as="sourcePoint" />
              <mxPoint x="702" y="137.04908160192713" as="targetPoint" />
            </mxGeometry>
          </mxCell>
        </UserObject>
        <UserObject label="" tags="Фон" id="6K3tUPXFN7NIQfRX_CUn-30">
          <mxCell style="vsdxID=12;edgeStyle=none;startArrow=none;endArrow=none;startSize=3;endSize=3;strokeWidth=3;strokeColor=#000000;spacingTop=-2;spacingBottom=-2;spacingLeft=-2;spacingRight=-2;verticalAlign=middle;html=1;labelBackgroundColor=#ffffff;rounded=0;movable=1;resizable=1;rotatable=1;deletable=1;editable=1;locked=0;connectable=1;fontFamily=isocpeur;fontStyle=2" parent="6K3tUPXFN7NIQfRX_CUn-2" edge="1">
            <mxGeometry relative="1" as="geometry">
              <Array as="points" />
              <mxPoint x="574" y="58.7353206865402" as="sourcePoint" />
              <mxPoint x="574" y="81.25052694971394" as="targetPoint" />
            </mxGeometry>
          </mxCell>
        </UserObject>
        <UserObject label="" tags="Фон" id="6K3tUPXFN7NIQfRX_CUn-31">
          <mxCell style="vsdxID=13;edgeStyle=none;startArrow=none;endArrow=none;startSize=3;endSize=3;strokeColor=#000000;spacingTop=-2;spacingBottom=-2;spacingLeft=-2;spacingRight=-2;verticalAlign=middle;html=1;labelBackgroundColor=#ffffff;rounded=0;movable=1;resizable=1;rotatable=1;deletable=1;editable=1;locked=0;connectable=1;fontFamily=isocpeur;fontStyle=2" parent="6K3tUPXFN7NIQfRX_CUn-2" edge="1">
            <mxGeometry relative="1" as="geometry">
              <Array as="points" />
              <mxPoint x="594" y="78.31376091538692" as="sourcePoint" />
              <mxPoint x="594" y="137.04908160192713" as="targetPoint" />
            </mxGeometry>
          </mxCell>
        </UserObject>
        <UserObject label="" tags="Фон" id="6K3tUPXFN7NIQfRX_CUn-32">
          <mxCell style="vsdxID=14;edgeStyle=none;startArrow=none;endArrow=none;startSize=3;endSize=3;strokeColor=#000000;spacingTop=-2;spacingBottom=-2;spacingLeft=-2;spacingRight=-2;verticalAlign=middle;html=1;labelBackgroundColor=#ffffff;rounded=0;movable=1;resizable=1;rotatable=1;deletable=1;editable=1;locked=0;connectable=1;fontFamily=isocpeur;fontStyle=2" parent="6K3tUPXFN7NIQfRX_CUn-2" edge="1">
            <mxGeometry relative="1" as="geometry">
              <Array as="points" />
              <mxPoint x="614" y="78.31376091538692" as="sourcePoint" />
              <mxPoint x="614" y="137.04908160192713" as="targetPoint" />
            </mxGeometry>
          </mxCell>
        </UserObject>
        <UserObject label="" tags="Фон" id="6K3tUPXFN7NIQfRX_CUn-33">
          <mxCell style="vsdxID=15;edgeStyle=none;startArrow=none;endArrow=none;startSize=3;endSize=3;strokeWidth=3;strokeColor=#000000;spacingTop=-2;spacingBottom=-2;spacingLeft=-2;spacingRight=-2;verticalAlign=middle;html=1;labelBackgroundColor=#ffffff;rounded=0;movable=1;resizable=1;rotatable=1;deletable=1;editable=1;locked=0;connectable=1;fontFamily=isocpeur;fontStyle=2" parent="6K3tUPXFN7NIQfRX_CUn-2" edge="1">
            <mxGeometry relative="1" as="geometry">
              <Array as="points" />
              <mxPoint x="634" y="58.7353206865402" as="sourcePoint" />
              <mxPoint x="634" y="137.04908160192713" as="targetPoint" />
            </mxGeometry>
          </mxCell>
        </UserObject>
        <UserObject label="" tags="Фон" id="6K3tUPXFN7NIQfRX_CUn-34">
          <mxCell style="vsdxID=16;edgeStyle=none;startArrow=none;endArrow=none;startSize=3;endSize=3;strokeWidth=3;strokeColor=#000000;spacingTop=-2;spacingBottom=-2;spacingLeft=-2;spacingRight=-2;verticalAlign=middle;html=1;labelBackgroundColor=#ffffff;rounded=0;movable=1;resizable=1;rotatable=1;deletable=1;editable=1;locked=0;connectable=1;fontFamily=isocpeur;fontStyle=2" parent="6K3tUPXFN7NIQfRX_CUn-2" edge="1">
            <mxGeometry relative="1" as="geometry">
              <Array as="points" />
              <mxPoint x="574" y="156.62752183077384" as="sourcePoint" />
              <mxPoint x="294" y="156.62752183077384" as="targetPoint" />
            </mxGeometry>
          </mxCell>
        </UserObject>
        <UserObject label="" tags="Фон" id="6K3tUPXFN7NIQfRX_CUn-35">
          <mxCell style="vsdxID=17;edgeStyle=none;startArrow=none;endArrow=none;startSize=3;endSize=3;strokeWidth=3;strokeColor=#000000;spacingTop=-2;spacingBottom=-2;spacingLeft=-2;spacingRight=-2;verticalAlign=middle;html=1;labelBackgroundColor=#ffffff;rounded=0;movable=1;resizable=1;rotatable=1;deletable=1;editable=1;locked=0;connectable=1;fontFamily=isocpeur;fontStyle=2" parent="6K3tUPXFN7NIQfRX_CUn-2" edge="1">
            <mxGeometry relative="1" as="geometry">
              <Array as="points" />
              <mxPoint x="294" as="sourcePoint" />
              <mxPoint x="294" y="215.36284251731405" as="targetPoint" />
            </mxGeometry>
          </mxCell>
        </UserObject>
        <UserObject label="" tags="Фон" id="6K3tUPXFN7NIQfRX_CUn-36">
          <mxCell style="vsdxID=18;edgeStyle=none;startArrow=none;endArrow=none;startSize=3;endSize=3;strokeWidth=3;strokeColor=#000000;spacingTop=-2;spacingBottom=-2;spacingLeft=-2;spacingRight=-2;verticalAlign=middle;html=1;labelBackgroundColor=#ffffff;rounded=0;movable=1;resizable=1;rotatable=1;deletable=1;editable=1;locked=0;connectable=1;fontFamily=isocpeur;fontStyle=2" parent="6K3tUPXFN7NIQfRX_CUn-2" edge="1">
            <mxGeometry relative="1" as="geometry">
              <Array as="points" />
              <mxPoint x="294" y="78.31376091538692" as="sourcePoint" />
              <mxPoint x="34" y="78.31376091538692" as="targetPoint" />
            </mxGeometry>
          </mxCell>
        </UserObject>
        <UserObject label="" tags="Фон" id="6K3tUPXFN7NIQfRX_CUn-37">
          <mxCell style="vsdxID=19;edgeStyle=none;startArrow=none;endArrow=none;startSize=3;endSize=3;strokeWidth=3;strokeColor=#000000;spacingTop=-2;spacingBottom=-2;spacingLeft=-2;spacingRight=-2;verticalAlign=middle;html=1;labelBackgroundColor=#ffffff;rounded=0;movable=1;resizable=1;rotatable=1;deletable=1;editable=1;locked=0;connectable=1;fontFamily=isocpeur;fontStyle=2" parent="6K3tUPXFN7NIQfRX_CUn-2" edge="1">
            <mxGeometry relative="1" as="geometry">
              <Array as="points" />
              <mxPoint x="294" y="58.7353206865402" as="sourcePoint" />
              <mxPoint x="774" y="58.7353206865402" as="targetPoint" />
            </mxGeometry>
          </mxCell>
        </UserObject>
        <UserObject label="" tags="Фон" id="6K3tUPXFN7NIQfRX_CUn-38">
          <mxCell style="vsdxID=20;edgeStyle=none;startArrow=none;endArrow=none;startSize=3;endSize=3;strokeWidth=3;strokeColor=#000000;spacingTop=-2;spacingBottom=-2;spacingLeft=-2;spacingRight=-2;verticalAlign=middle;html=1;labelBackgroundColor=#ffffff;rounded=0;movable=1;resizable=1;rotatable=1;deletable=1;editable=1;locked=0;connectable=1;fontFamily=isocpeur;fontStyle=2" parent="6K3tUPXFN7NIQfRX_CUn-2" edge="1">
            <mxGeometry relative="1" as="geometry">
              <Array as="points" />
              <mxPoint x="254" as="sourcePoint" />
              <mxPoint x="254" y="215.36284251731405" as="targetPoint" />
            </mxGeometry>
          </mxCell>
        </UserObject>
        <UserObject label="" tags="Фон" id="6K3tUPXFN7NIQfRX_CUn-39">
          <mxCell style="vsdxID=21;edgeStyle=none;startArrow=none;endArrow=none;startSize=3;endSize=3;strokeWidth=3;strokeColor=#000000;spacingTop=-2;spacingBottom=-2;spacingLeft=-2;spacingRight=-2;verticalAlign=middle;html=1;labelBackgroundColor=#ffffff;rounded=0;movable=1;resizable=1;rotatable=1;deletable=1;editable=1;locked=0;connectable=1;fontFamily=isocpeur;fontStyle=2" parent="6K3tUPXFN7NIQfRX_CUn-2" edge="1">
            <mxGeometry relative="1" as="geometry">
              <Array as="points" />
              <mxPoint x="194" as="sourcePoint" />
              <mxPoint x="194" y="215.36284251731405" as="targetPoint" />
            </mxGeometry>
          </mxCell>
        </UserObject>
        <UserObject label="" tags="Фон" id="6K3tUPXFN7NIQfRX_CUn-40">
          <mxCell style="vsdxID=22;edgeStyle=none;startArrow=none;endArrow=none;startSize=3;endSize=3;strokeWidth=3;strokeColor=#000000;spacingTop=-2;spacingBottom=-2;spacingLeft=-2;spacingRight=-2;verticalAlign=middle;html=1;labelBackgroundColor=#ffffff;rounded=0;movable=1;resizable=1;rotatable=1;deletable=1;editable=1;locked=0;connectable=1;fontFamily=isocpeur;fontStyle=2" parent="6K3tUPXFN7NIQfRX_CUn-2" edge="1">
            <mxGeometry relative="1" as="geometry">
              <Array as="points" />
              <mxPoint x="102" as="sourcePoint" />
              <mxPoint x="102" y="215.36284251731405" as="targetPoint" />
            </mxGeometry>
          </mxCell>
        </UserObject>
        <UserObject label="" tags="Фон" id="6K3tUPXFN7NIQfRX_CUn-41">
          <mxCell style="vsdxID=23;edgeStyle=none;startArrow=none;endArrow=none;startSize=3;endSize=3;strokeColor=#000000;spacingTop=-2;spacingBottom=-2;spacingLeft=-2;spacingRight=-2;verticalAlign=middle;html=1;labelBackgroundColor=#ffffff;rounded=0;movable=1;resizable=1;rotatable=1;deletable=1;editable=1;locked=0;connectable=1;fontFamily=isocpeur;fontStyle=2" parent="6K3tUPXFN7NIQfRX_CUn-2" edge="1">
            <mxGeometry relative="1" as="geometry">
              <Array as="points" />
              <mxPoint x="34" y="19.57844022884673" as="sourcePoint" />
              <mxPoint x="294" y="19.57844022884673" as="targetPoint" />
            </mxGeometry>
          </mxCell>
        </UserObject>
        <UserObject label="" tags="Фон" id="6K3tUPXFN7NIQfRX_CUn-42">
          <mxCell style="vsdxID=24;edgeStyle=none;startArrow=none;endArrow=none;startSize=3;endSize=3;strokeColor=#000000;spacingTop=-2;spacingBottom=-2;spacingLeft=-2;spacingRight=-2;verticalAlign=middle;html=1;labelBackgroundColor=#ffffff;rounded=0;movable=1;resizable=1;rotatable=1;deletable=1;editable=1;locked=0;connectable=1;fontFamily=isocpeur;fontStyle=2" parent="6K3tUPXFN7NIQfRX_CUn-2" edge="1">
            <mxGeometry relative="1" as="geometry">
              <Array as="points" />
              <mxPoint x="294" y="39.15688045769346" as="sourcePoint" />
              <mxPoint x="34" y="39.15688045769346" as="targetPoint" />
            </mxGeometry>
          </mxCell>
        </UserObject>
        <UserObject label="" tags="Фон" id="6K3tUPXFN7NIQfRX_CUn-43">
          <mxCell style="vsdxID=25;edgeStyle=none;startArrow=none;endArrow=none;startSize=3;endSize=3;strokeColor=#000000;spacingTop=-2;spacingBottom=-2;spacingLeft=-2;spacingRight=-2;verticalAlign=middle;html=1;labelBackgroundColor=#ffffff;rounded=0;movable=1;resizable=1;rotatable=1;deletable=1;editable=1;locked=0;connectable=1;fontFamily=isocpeur;fontStyle=2" parent="6K3tUPXFN7NIQfRX_CUn-2" edge="1">
            <mxGeometry relative="1" as="geometry">
              <Array as="points" />
              <mxPoint x="34" y="58.7353206865402" as="sourcePoint" />
              <mxPoint x="294" y="58.7353206865402" as="targetPoint" />
            </mxGeometry>
          </mxCell>
        </UserObject>
        <UserObject label="" tags="Фон" id="6K3tUPXFN7NIQfRX_CUn-44">
          <mxCell style="vsdxID=26;edgeStyle=none;startArrow=none;endArrow=none;startSize=3;endSize=3;strokeColor=#000000;spacingTop=-2;spacingBottom=-2;spacingLeft=-2;spacingRight=-2;verticalAlign=middle;html=1;labelBackgroundColor=#ffffff;rounded=0;movable=1;resizable=1;rotatable=1;deletable=1;editable=1;locked=0;connectable=1;fontFamily=isocpeur;fontStyle=2" parent="6K3tUPXFN7NIQfRX_CUn-2" edge="1">
            <mxGeometry relative="1" as="geometry">
              <Array as="points" />
              <mxPoint x="294" y="117.4706413730804" as="sourcePoint" />
              <mxPoint x="34" y="117.4706413730804" as="targetPoint" />
            </mxGeometry>
          </mxCell>
        </UserObject>
        <UserObject label="" tags="Фон" id="6K3tUPXFN7NIQfRX_CUn-45">
          <mxCell style="vsdxID=27;edgeStyle=none;startArrow=none;endArrow=none;startSize=3;endSize=3;strokeColor=#000000;spacingTop=-2;spacingBottom=-2;spacingLeft=-2;spacingRight=-2;verticalAlign=middle;html=1;labelBackgroundColor=#ffffff;rounded=0;movable=1;resizable=1;rotatable=1;deletable=1;editable=1;locked=0;connectable=1;fontFamily=isocpeur;fontStyle=2" parent="6K3tUPXFN7NIQfRX_CUn-2" edge="1">
            <mxGeometry relative="1" as="geometry">
              <Array as="points" />
              <mxPoint x="34" y="137.04908160192713" as="sourcePoint" />
              <mxPoint x="294" y="137.04908160192713" as="targetPoint" />
            </mxGeometry>
          </mxCell>
        </UserObject>
        <UserObject label="" tags="Фон" id="6K3tUPXFN7NIQfRX_CUn-46">
          <mxCell style="vsdxID=28;edgeStyle=none;startArrow=none;endArrow=none;startSize=3;endSize=3;strokeWidth=3;strokeColor=#000000;spacingTop=-2;spacingBottom=-2;spacingLeft=-2;spacingRight=-2;verticalAlign=middle;html=1;labelBackgroundColor=#ffffff;rounded=0;movable=1;resizable=1;rotatable=1;deletable=1;editable=1;locked=0;connectable=1;fontFamily=isocpeur;fontStyle=2" parent="6K3tUPXFN7NIQfRX_CUn-2" edge="1">
            <mxGeometry relative="1" as="geometry">
              <Array as="points" />
              <mxPoint x="294" y="156.62752183077384" as="sourcePoint" />
              <mxPoint x="34" y="156.62752183077384" as="targetPoint" />
            </mxGeometry>
          </mxCell>
        </UserObject>
        <UserObject label="" tags="Фон" id="6K3tUPXFN7NIQfRX_CUn-47">
          <mxCell style="vsdxID=29;edgeStyle=none;startArrow=none;endArrow=none;startSize=3;endSize=3;strokeColor=#000000;spacingTop=-2;spacingBottom=-2;spacingLeft=-2;spacingRight=-2;verticalAlign=middle;html=1;labelBackgroundColor=#ffffff;rounded=0;movable=1;resizable=1;rotatable=1;deletable=1;editable=1;locked=0;connectable=1;fontFamily=isocpeur;fontStyle=2" parent="6K3tUPXFN7NIQfRX_CUn-2" edge="1">
            <mxGeometry relative="1" as="geometry">
              <Array as="points" />
              <mxPoint x="34" y="176.2059620596206" as="sourcePoint" />
              <mxPoint x="294" y="176.2059620596206" as="targetPoint" />
            </mxGeometry>
          </mxCell>
        </UserObject>
        <UserObject label="" tags="Фон" id="6K3tUPXFN7NIQfRX_CUn-48">
          <mxCell style="vsdxID=30;edgeStyle=none;startArrow=none;endArrow=none;startSize=3;endSize=3;strokeColor=#000000;spacingTop=-2;spacingBottom=-2;spacingLeft=-2;spacingRight=-2;verticalAlign=middle;html=1;labelBackgroundColor=#ffffff;rounded=0;movable=1;resizable=1;rotatable=1;deletable=1;editable=1;locked=0;connectable=1;fontFamily=isocpeur;fontStyle=2" parent="6K3tUPXFN7NIQfRX_CUn-2" edge="1">
            <mxGeometry relative="1" as="geometry">
              <Array as="points" />
              <mxPoint x="294" y="195.7844022884673" as="sourcePoint" />
              <mxPoint x="34" y="195.7844022884673" as="targetPoint" />
            </mxGeometry>
          </mxCell>
        </UserObject>
        <UserObject label="" tags="Фон" id="6K3tUPXFN7NIQfRX_CUn-49">
          <mxCell style="vsdxID=31;edgeStyle=none;startArrow=none;endArrow=none;startSize=3;endSize=3;strokeWidth=3;strokeColor=#000000;spacingTop=-2;spacingBottom=-2;spacingLeft=-2;spacingRight=-2;verticalAlign=middle;html=1;labelBackgroundColor=#ffffff;rounded=0;movable=1;resizable=1;rotatable=1;deletable=1;editable=1;locked=0;connectable=1;fontFamily=isocpeur;fontStyle=2" parent="6K3tUPXFN7NIQfRX_CUn-2" edge="1">
            <mxGeometry relative="1" as="geometry">
              <Array as="points" />
              <mxPoint x="34" y="97.89220114423365" as="sourcePoint" />
              <mxPoint x="294" y="97.89220114423365" as="targetPoint" />
            </mxGeometry>
          </mxCell>
        </UserObject>
        <UserObject label="" tags="Фон" id="6K3tUPXFN7NIQfRX_CUn-50">
          <mxCell style="vsdxID=32;edgeStyle=none;startArrow=none;endArrow=none;startSize=3;endSize=3;strokeWidth=3;strokeColor=#000000;spacingTop=-2;spacingBottom=-2;spacingLeft=-2;spacingRight=-2;verticalAlign=middle;html=1;labelBackgroundColor=#ffffff;rounded=0;movable=1;resizable=1;rotatable=1;deletable=1;editable=1;locked=0;connectable=1;fontFamily=isocpeur;fontStyle=2" parent="6K3tUPXFN7NIQfRX_CUn-2" edge="1">
            <mxGeometry relative="1" as="geometry">
              <Array as="points" />
              <mxPoint x="58" y="1.9578440228846732" as="sourcePoint" />
              <mxPoint x="58" y="97.89220114423365" as="targetPoint" />
            </mxGeometry>
          </mxCell>
        </UserObject>
        <UserObject label="" tags="Фон" id="6K3tUPXFN7NIQfRX_CUn-51">
          <mxCell style="vsdxID=50;edgeStyle=none;startArrow=none;endArrow=none;startSize=3;endSize=3;strokeWidth=3;strokeColor=#000000;spacingTop=-2;spacingBottom=-2;spacingLeft=-2;spacingRight=-2;verticalAlign=middle;html=1;labelBackgroundColor=#ffffff;rounded=0;movable=1;resizable=1;rotatable=1;deletable=1;editable=1;locked=0;connectable=1;fontFamily=isocpeur;fontStyle=2" parent="6K3tUPXFN7NIQfRX_CUn-2" edge="1">
            <mxGeometry relative="1" as="geometry">
              <Array as="points" />
              <mxPoint x="34" as="sourcePoint" />
              <mxPoint x="774" as="targetPoint" />
            </mxGeometry>
          </mxCell>
        </UserObject>
        <UserObject label="" tags="Фон" id="6K3tUPXFN7NIQfRX_CUn-52">
          <mxCell style="vsdxID=52;edgeStyle=none;startArrow=none;endArrow=none;startSize=3;endSize=3;strokeWidth=3;strokeColor=#000000;spacingTop=-2;spacingBottom=-2;spacingLeft=-2;spacingRight=-2;verticalAlign=middle;html=1;labelBackgroundColor=#ffffff;rounded=0;movable=1;resizable=1;rotatable=1;deletable=1;editable=1;locked=0;connectable=1;fontFamily=isocpeur;fontStyle=2" parent="6K3tUPXFN7NIQfRX_CUn-2" edge="1">
            <mxGeometry relative="1" as="geometry">
              <Array as="points" />
              <mxPoint x="33" as="sourcePoint" />
              <mxPoint x="33" y="215.36284251731405" as="targetPoint" />
            </mxGeometry>
          </mxCell>
        </UserObject>
        <UserObject label="&lt;div style=&quot;font-size: 1px&quot;&gt;&lt;p style=&quot;text-align:left;margin-left:0;margin-right:0;margin-top:0px;margin-bottom:0px;text-indent:0;vertical-align:middle;direction:ltr;&quot;&gt;&lt;font style=&quot;font-size: 16.93px; color: rgb(0, 0, 0); direction: ltr; letter-spacing: 0px; line-height: 120%; opacity: 1;&quot;&gt;&lt;span&gt;Давыдович&lt;br&gt;&lt;/span&gt;&lt;/font&gt;&lt;/p&gt;&lt;/div&gt;" tags="Фон" id="6K3tUPXFN7NIQfRX_CUn-62">
          <mxCell style="verticalAlign=middle;align=left;overflow=width;vsdxID=455;fillColor=none;gradientColor=none;shape=stencil(nZBLDoAgDERP0z3SIyjew0SURgSD+Lu9kMZoXLhwN9O+tukAlrNpJg1SzDH4QW/URgNYgZTkjA4UkwJUgGXng+6DX1zLfmoymdXo17xh5zmRJ6Q42BWCfc2oJfdAr+Yv+AP9Cb7OJ3H/2JG1HNGz/84klThPVCc=);strokeColor=none;spacingTop=-2;spacingBottom=-2;spacingLeft=-2;spacingRight=-2;points=[];labelBackgroundColor=none;rounded=0;html=1;whiteSpace=wrap;movable=1;resizable=1;rotatable=1;deletable=1;editable=1;locked=0;connectable=1;fontFamily=isocpeur;fontStyle=2" parent="6K3tUPXFN7NIQfRX_CUn-2" vertex="1">
            <mxGeometry x="107" y="175.7817645287564" width="98" height="20" as="geometry" />
          </mxCell>
        </UserObject>
        <UserObject label="&lt;div style=&quot;font-size: 1px&quot;&gt;&lt;p style=&quot;text-align:left;margin-left:0;margin-right:0;margin-top:0px;margin-bottom:0px;text-indent:0;vertical-align:middle;direction:ltr;&quot;&gt;&lt;font style=&quot;font-size: 16.93px; color: rgb(0, 0, 0); direction: ltr; letter-spacing: 0px; line-height: 120%; opacity: 1;&quot;&gt;&lt;span&gt;Сирко&lt;br&gt;&lt;/span&gt;&lt;/font&gt;&lt;/p&gt;&lt;/div&gt;" tags="Фон" id="6K3tUPXFN7NIQfRX_CUn-66">
          <mxCell style="verticalAlign=middle;align=left;overflow=width;vsdxID=455;fillColor=none;gradientColor=none;shape=stencil(nZBLDoAgDERP0z3SIyjew0SURgSD+Lu9kMZoXLhwN9O+tukAlrNpJg1SzDH4QW/URgNYgZTkjA4UkwJUgGXng+6DX1zLfmoymdXo17xh5zmRJ6Q42BWCfc2oJfdAr+Yv+AP9Cb7OJ3H/2JG1HNGz/84klThPVCc=);strokeColor=none;spacingTop=-2;spacingBottom=-2;spacingLeft=-2;spacingRight=-2;points=[];labelBackgroundColor=none;rounded=0;html=1;whiteSpace=wrap;movable=1;resizable=1;rotatable=1;deletable=1;editable=1;locked=0;connectable=1;fontFamily=isocpeur;fontStyle=2" parent="6K3tUPXFN7NIQfRX_CUn-2" vertex="1">
            <mxGeometry x="107" y="96.70176452875648" width="98" height="20" as="geometry" />
          </mxCell>
        </UserObject>
        <UserObject label="&lt;div style=&quot;font-size: 1px&quot;&gt;&lt;p style=&quot;text-align:left;margin-left:0;margin-right:0;margin-top:0px;margin-bottom:0px;text-indent:0;vertical-align:middle;direction:ltr;&quot;&gt;&lt;font style=&quot;font-size: 16.93px; color: rgb(0, 0, 0); direction: ltr; letter-spacing: 0px; line-height: 120%; opacity: 1;&quot;&gt;&lt;span&gt;Балтрукович&lt;/span&gt;&lt;/font&gt;&lt;/p&gt;&lt;/div&gt;" tags="Фон" id="9j_zaId6g0PbMuOTpduD-0">
          <mxCell style="verticalAlign=middle;align=left;overflow=width;vsdxID=455;fillColor=none;gradientColor=none;shape=stencil(nZBLDoAgDERP0z3SIyjew0SURgSD+Lu9kMZoXLhwN9O+tukAlrNpJg1SzDH4QW/URgNYgZTkjA4UkwJUgGXng+6DX1zLfmoymdXo17xh5zmRJ6Q42BWCfc2oJfdAr+Yv+AP9Cb7OJ3H/2JG1HNGz/84klThPVCc=);strokeColor=none;spacingTop=-2;spacingBottom=-2;spacingLeft=-2;spacingRight=-2;points=[];labelBackgroundColor=none;rounded=0;html=1;whiteSpace=wrap;movable=1;resizable=1;rotatable=1;deletable=1;editable=1;locked=0;connectable=1;fontFamily=isocpeur;fontStyle=2" parent="6K3tUPXFN7NIQfRX_CUn-2" vertex="1">
            <mxGeometry x="102" y="116.70176452875648" width="98" height="20" as="geometry" />
          </mxCell>
        </UserObject>
        <UserObject label="&lt;div style=&quot;&quot;&gt;&lt;font&gt;&lt;span style=&quot;font-size: 16.93px;&quot;&gt;&lt;span&gt;Блок-схема алгоритма работы пользователя&lt;/span&gt;&lt;/span&gt;&lt;/font&gt;&lt;/div&gt;" tags="Фон" id="6K3tUPXFN7NIQfRX_CUn-63">
          <mxCell style="verticalAlign=middle;align=center;overflow=width;vsdxID=456;fillColor=none;gradientColor=none;shape=stencil(nZBLDoAgDERP0z3SIyjew0SURgSD+Lu9kMZoXLhwN9O+tukAlrNpJg1SzDH4QW/URgNYgZTkjA4UkwJUgGXng+6DX1zLfmoymdXo17xh5zmRJ6Q42BWCfc2oJfdAr+Yv+AP9Cb7OJ3H/2JG1HNGz/84klThPVCc=);strokeColor=none;strokeWidth=3;points=[];labelBackgroundColor=none;rounded=0;html=1;whiteSpace=wrap;movable=1;resizable=1;rotatable=1;deletable=1;editable=1;locked=0;connectable=1;fontFamily=isocpeur;fontStyle=2" parent="6K3tUPXFN7NIQfRX_CUn-2" vertex="1">
            <mxGeometry x="295" y="155.36176452875634" width="280" height="60" as="geometry" />
          </mxCell>
        </UserObject>
        <UserObject label="&lt;div style=&quot;&quot;&gt;&lt;font&gt;&lt;span style=&quot;font-size: 16.93px;&quot;&gt;&lt;span&gt;Фреймворк для автоматизации тестирования на платформе .NET8 и его эргономическое проектирование&lt;/span&gt;&lt;/span&gt;&lt;/font&gt;&lt;/div&gt;" tags="Фон" id="4juMVOE3TSHuapweOOKK-0">
          <mxCell style="verticalAlign=middle;align=center;overflow=width;vsdxID=456;fillColor=none;gradientColor=none;shape=stencil(nZBLDoAgDERP0z3SIyjew0SURgSD+Lu9kMZoXLhwN9O+tukAlrNpJg1SzDH4QW/URgNYgZTkjA4UkwJUgGXng+6DX1zLfmoymdXo17xh5zmRJ6Q42BWCfc2oJfdAr+Yv+AP9Cb7OJ3H/2JG1HNGz/84klThPVCc=);strokeColor=none;strokeWidth=3;points=[];labelBackgroundColor=none;rounded=0;html=1;whiteSpace=wrap;movable=1;resizable=1;rotatable=1;deletable=1;editable=1;locked=0;connectable=1;fontFamily=isocpeur;fontStyle=2" vertex="1" parent="6K3tUPXFN7NIQfRX_CUn-2">
            <mxGeometry x="295" y="59.15" width="279" height="95.85" as="geometry" />
          </mxCell>
        </UserObject>
        <UserObject label="&lt;div style=&quot;font-size: 1px&quot;&gt;&lt;p style=&quot;text-align:left;margin-left:0;margin-right:0;margin-top:0px;margin-bottom:0px;text-indent:0;vertical-align:middle;direction:ltr;&quot;&gt;&lt;font style=&quot;font-size: 16.93px; color: rgb(0, 0, 0); direction: ltr; letter-spacing: 0px; line-height: 120%; opacity: 1;&quot;&gt;&lt;span&gt;Балтрукович&lt;/span&gt;&lt;/font&gt;&lt;/p&gt;&lt;/div&gt;" tags="Фон" id="4juMVOE3TSHuapweOOKK-1">
          <mxCell style="verticalAlign=middle;align=left;overflow=width;vsdxID=455;fillColor=none;gradientColor=none;shape=stencil(nZBLDoAgDERP0z3SIyjew0SURgSD+Lu9kMZoXLhwN9O+tukAlrNpJg1SzDH4QW/URgNYgZTkjA4UkwJUgGXng+6DX1zLfmoymdXo17xh5zmRJ6Q42BWCfc2oJfdAr+Yv+AP9Cb7OJ3H/2JG1HNGz/84klThPVCc=);strokeColor=none;spacingTop=-2;spacingBottom=-2;spacingLeft=-2;spacingRight=-2;points=[];labelBackgroundColor=none;rounded=0;html=1;whiteSpace=wrap;movable=1;resizable=1;rotatable=1;deletable=1;editable=1;locked=0;connectable=1;fontFamily=isocpeur;fontStyle=2" vertex="1" parent="6K3tUPXFN7NIQfRX_CUn-2">
            <mxGeometry x="102" y="135.00176452875667" width="98" height="20" as="geometry" />
          </mxCell>
        </UserObject>
        <UserObject label="&lt;div style=&quot;font-size: 1px&quot;&gt;&lt;font style=&quot;font-size: 42.33px; color: rgb(0, 0, 0); direction: ltr; letter-spacing: 0px; line-height: 120%; opacity: 1;&quot;&gt;&lt;span&gt;ГУИР 502900.003 ПД&lt;/span&gt;&lt;/font&gt;&lt;font style=&quot;font-size: 42.33px; color: rgb(0, 0, 0); direction: ltr; letter-spacing: 0px; line-height: 120%; opacity: 1;&quot;&gt;&lt;span&gt;&lt;br&gt;&lt;/span&gt;&lt;/font&gt;&lt;/div&gt;" tags="Фон" id="6K3tUPXFN7NIQfRX_CUn-64">
          <mxCell style="verticalAlign=middle;align=center;overflow=width;vsdxID=459;fillColor=none;gradientColor=none;shape=stencil(nZBLDoAgDERP0z3SIyjew0SURgSD+Lu9kMZoXLhwN9O+tukAlrNpJg1SzDH4QW/URgNYgZTkjA4UkwJUgGXng+6DX1zLfmoymdXo17xh5zmRJ6Q42BWCfc2oJfdAr+Yv+AP9Cb7OJ3H/2JG1HNGz/84klThPVCc=);strokeColor=none;strokeWidth=3;points=[];labelBackgroundColor=none;rounded=0;html=1;whiteSpace=wrap;movable=1;resizable=1;rotatable=1;deletable=1;editable=1;locked=0;connectable=1;fontFamily=isocpeur;fontStyle=2" parent="6K3tUPXFN7NIQfRX_CUn-2" vertex="1">
            <mxGeometry x="295" y="0.0017645287562118028" width="484" height="60" as="geometry" />
          </mxCell>
        </UserObject>
        <UserObject label="" tags="Фон" id="6K3tUPXFN7NIQfRX_CUn-53">
          <mxCell style="vsdxID=444;edgeStyle=none;startArrow=none;endArrow=none;startSize=5;endSize=5;strokeWidth=3;strokeColor=#000000;spacingTop=-1;spacingBottom=-1;spacingLeft=-1;spacingRight=-1;verticalAlign=middle;html=1;labelBackgroundColor=#ffffff;rounded=0;movable=1;resizable=1;rotatable=1;deletable=1;editable=1;locked=0;connectable=1;fontFamily=isocpeur;fontStyle=2" parent="6K3tUPXFN7NIQfRX_CUn-0" edge="1">
            <mxGeometry relative="1" as="geometry">
              <Array as="points" />
              <mxPoint x="2264" y="3191.2857573020174" as="sourcePoint" />
              <mxPoint x="2268" y="3191.2857573020174" as="targetPoint" />
            </mxGeometry>
          </mxCell>
        </UserObject>
        <UserObject label="" tags="Фон" id="6K3tUPXFN7NIQfRX_CUn-54">
          <mxCell style="vsdxID=445;edgeStyle=none;startArrow=none;endArrow=none;startSize=5;endSize=5;strokeWidth=3;strokeColor=#000000;spacingTop=-1;spacingBottom=-1;spacingLeft=-1;spacingRight=-1;verticalAlign=middle;html=1;labelBackgroundColor=#ffffff;rounded=0;movable=1;resizable=1;rotatable=1;deletable=1;editable=1;locked=0;connectable=1;fontFamily=isocpeur;fontStyle=2" parent="6K3tUPXFN7NIQfRX_CUn-0" edge="1">
            <mxGeometry relative="1" as="geometry">
              <Array as="points" />
              <mxPoint x="2264" y="3171.7073170731705" as="sourcePoint" />
              <mxPoint x="2268" y="3171.7073170731705" as="targetPoint" />
            </mxGeometry>
          </mxCell>
        </UserObject>
        <UserObject label="" tags="Фон" id="6K3tUPXFN7NIQfRX_CUn-55">
          <mxCell style="vsdxID=446;edgeStyle=none;startArrow=none;endArrow=none;startSize=5;endSize=5;strokeWidth=3;strokeColor=#000000;spacingTop=-1;spacingBottom=-1;spacingLeft=-1;spacingRight=-1;verticalAlign=middle;html=1;labelBackgroundColor=#ffffff;rounded=0;movable=1;resizable=1;rotatable=1;deletable=1;editable=1;locked=0;connectable=1;fontFamily=isocpeur;fontStyle=2" parent="6K3tUPXFN7NIQfRX_CUn-0" edge="1">
            <mxGeometry relative="1" as="geometry">
              <Array as="points" />
              <mxPoint x="2264" y="3112.9719963866305" as="sourcePoint" />
              <mxPoint x="2268" y="3112.9719963866305" as="targetPoint" />
            </mxGeometry>
          </mxCell>
        </UserObject>
        <UserObject label="" tags="Фон" id="6K3tUPXFN7NIQfRX_CUn-56">
          <mxCell style="vsdxID=447;edgeStyle=none;startArrow=none;endArrow=none;startSize=5;endSize=5;strokeWidth=3;strokeColor=#000000;spacingTop=-1;spacingBottom=-1;spacingLeft=-1;spacingRight=-1;verticalAlign=middle;html=1;labelBackgroundColor=#ffffff;rounded=0;movable=1;resizable=1;rotatable=1;deletable=1;editable=1;locked=0;connectable=1;fontFamily=isocpeur;fontStyle=2" parent="6K3tUPXFN7NIQfRX_CUn-0" edge="1">
            <mxGeometry relative="1" as="geometry">
              <Array as="points" />
              <mxPoint x="2264" y="3093.3935561577837" as="sourcePoint" />
              <mxPoint x="2267" y="3093.3935561577837" as="targetPoint" />
            </mxGeometry>
          </mxCell>
        </UserObject>
        <UserObject label="" tags="Фон" id="6K3tUPXFN7NIQfRX_CUn-57">
          <mxCell style="vsdxID=448;edgeStyle=none;startArrow=none;endArrow=none;startSize=5;endSize=5;strokeWidth=3;strokeColor=#000000;spacingTop=-1;spacingBottom=-1;spacingLeft=-1;spacingRight=-1;verticalAlign=middle;html=1;labelBackgroundColor=#ffffff;rounded=0;movable=0;resizable=0;rotatable=0;deletable=0;editable=0;locked=1;connectable=0;" parent="6K3tUPXFN7NIQfRX_CUn-0" edge="1">
            <mxGeometry relative="1" as="geometry">
              <Array as="points" />
              <mxPoint as="sourcePoint" />
              <mxPoint x="2268" as="targetPoint" />
            </mxGeometry>
          </mxCell>
        </UserObject>
        <UserObject label="" tags="Фон" id="6K3tUPXFN7NIQfRX_CUn-58">
          <mxCell style="vsdxID=449;edgeStyle=none;startArrow=none;endArrow=none;startSize=5;endSize=5;strokeWidth=3;strokeColor=#000000;spacingTop=-1;spacingBottom=-1;spacingLeft=-1;spacingRight=-1;verticalAlign=middle;html=1;labelBackgroundColor=#ffffff;rounded=0;movable=0;resizable=0;rotatable=0;deletable=0;editable=0;locked=1;connectable=0;" parent="6K3tUPXFN7NIQfRX_CUn-0" edge="1">
            <mxGeometry relative="1" as="geometry">
              <Array as="points" />
              <mxPoint x="2268" as="sourcePoint" />
              <mxPoint x="2268" y="3251" as="targetPoint" />
            </mxGeometry>
          </mxCell>
        </UserObject>
        <UserObject label="" tags="Фон" id="6K3tUPXFN7NIQfRX_CUn-59">
          <mxCell style="vsdxID=450;edgeStyle=none;startArrow=none;endArrow=none;startSize=5;endSize=5;strokeWidth=3;strokeColor=#000000;spacingTop=-1;spacingBottom=-1;spacingLeft=-1;spacingRight=-1;verticalAlign=middle;html=1;labelBackgroundColor=#ffffff;rounded=0;movable=1;resizable=1;rotatable=1;deletable=1;editable=1;locked=0;connectable=1;fontFamily=isocpeur;fontStyle=2" parent="6K3tUPXFN7NIQfRX_CUn-0" edge="1">
            <mxGeometry relative="1" as="geometry">
              <Array as="points" />
              <mxPoint x="2264" y="3034.6582354712436" as="sourcePoint" />
              <mxPoint x="2268" y="3034.6582354712436" as="targetPoint" />
            </mxGeometry>
          </mxCell>
        </UserObject>
        <UserObject label="" tags="Фон" id="6K3tUPXFN7NIQfRX_CUn-60">
          <mxCell style="vsdxID=452;edgeStyle=none;startArrow=none;endArrow=none;startSize=5;endSize=5;strokeWidth=3;strokeColor=#000000;spacingTop=-1;spacingBottom=-1;spacingLeft=-1;spacingRight=-1;verticalAlign=middle;html=1;labelBackgroundColor=#ffffff;rounded=0;movable=0;resizable=0;rotatable=0;deletable=0;editable=0;locked=1;connectable=0;" parent="6K3tUPXFN7NIQfRX_CUn-0" edge="1">
            <mxGeometry relative="1" as="geometry">
              <Array as="points" />
              <mxPoint as="sourcePoint" />
              <mxPoint y="3251" as="targetPoint" />
            </mxGeometry>
          </mxCell>
        </UserObject>
        <UserObject label="" tags="Фон" id="6K3tUPXFN7NIQfRX_CUn-61">
          <mxCell style="vsdxID=453;edgeStyle=none;startArrow=none;endArrow=none;startSize=5;endSize=5;strokeWidth=3;strokeColor=#000000;spacingTop=-1;spacingBottom=-1;spacingLeft=-1;spacingRight=-1;verticalAlign=middle;html=1;labelBackgroundColor=#ffffff;rounded=0;movable=0;resizable=0;rotatable=0;deletable=0;editable=0;locked=1;connectable=0;" parent="6K3tUPXFN7NIQfRX_CUn-0" edge="1">
            <mxGeometry relative="1" as="geometry">
              <Array as="points" />
              <mxPoint y="3251" as="sourcePoint" />
              <mxPoint x="2268" y="3251" as="targetPoint" />
            </mxGeometry>
          </mxCell>
        </UserObject>
        <UserObject label="" tags="Connector Соединительная_линия Показатель Блок-схема" id="6K3tUPXFN7NIQfRX_CUn-65">
          <mxCell parent="WIyWlLk6GJQsqaUBKTNV-1" vertex="1" visible="0">
            <mxGeometry x="730" y="570" as="geometry" />
          </mxCell>
        </UserObject>
        <mxCell id="6K3tUPXFN7NIQfRX_CUn-87" value="" style="edgeStyle=orthogonalEdgeStyle;rounded=0;orthogonalLoop=1;jettySize=auto;html=1;fontFamily=isocpeur;fontSize=12;fontColor=default;strokeWidth=2;fontStyle=2" parent="WIyWlLk6GJQsqaUBKTNV-1" source="6K3tUPXFN7NIQfRX_CUn-68" target="6K3tUPXFN7NIQfRX_CUn-70" edge="1">
          <mxGeometry relative="1" as="geometry" />
        </mxCell>
        <mxCell id="6K3tUPXFN7NIQfRX_CUn-68" value="&lt;font style=&quot;font-size: 30px;&quot;&gt;Начало в роли &quot;Пользователь&quot;&lt;/font&gt;" style="rounded=0;whiteSpace=wrap;html=1;fontFamily=isocpeur;fontStyle=2" parent="WIyWlLk6GJQsqaUBKTNV-1" vertex="1">
          <mxGeometry x="113.24966261808368" y="123" width="470.736842105263" height="101.47787229319084" as="geometry" />
        </mxCell>
        <mxCell id="6K3tUPXFN7NIQfRX_CUn-70" value="&lt;font style=&quot;font-size: 30px;&quot;&gt;Выбор браузера и версии драйвера&lt;/font&gt;" style="shape=process;whiteSpace=wrap;html=1;backgroundOutline=1;rounded=0;strokeColor=default;align=center;verticalAlign=middle;fontFamily=isocpeur;fontSize=12;fontColor=default;fillColor=default;fontStyle=2" parent="WIyWlLk6GJQsqaUBKTNV-1" vertex="1">
          <mxGeometry x="113.24661268556007" y="263.9957811577383" width="469.8083670715251" height="106.45838136279532" as="geometry" />
        </mxCell>
        <mxCell id="6K3tUPXFN7NIQfRX_CUn-98" value="" style="edgeStyle=orthogonalEdgeStyle;rounded=0;orthogonalLoop=1;jettySize=auto;html=1;strokeColor=default;strokeWidth=2;align=center;verticalAlign=middle;fontFamily=isocpeur;fontSize=12;fontColor=default;labelBackgroundColor=default;endArrow=classic;fontStyle=2" parent="WIyWlLk6GJQsqaUBKTNV-1" source="6K3tUPXFN7NIQfRX_CUn-71" target="6K3tUPXFN7NIQfRX_CUn-77" edge="1">
          <mxGeometry relative="1" as="geometry" />
        </mxCell>
        <mxCell id="6K3tUPXFN7NIQfRX_CUn-71" value="&lt;font style=&quot;font-size: 30px;&quot;&gt;Выбор тестируемой страницы&lt;/font&gt;" style="rounded=0;whiteSpace=wrap;html=1;fontFamily=isocpeur;fontStyle=2" parent="WIyWlLk6GJQsqaUBKTNV-1" vertex="1">
          <mxGeometry x="113.10966261808368" y="586.0008886747676" width="471.6653171390015" height="101.47787229319084" as="geometry" />
        </mxCell>
        <mxCell id="6K3tUPXFN7NIQfRX_CUn-72" value="&lt;div style=&quot;&quot;&gt;&lt;font style=&quot;font-size: 22px;&quot;&gt;Дополнительные настройки браузера?&lt;/font&gt;&lt;/div&gt;" style="rhombus;whiteSpace=wrap;html=1;rounded=0;strokeColor=default;align=center;verticalAlign=middle;fontFamily=isocpeur;fontSize=12;fontColor=default;fillColor=default;fontStyle=2" parent="WIyWlLk6GJQsqaUBKTNV-1" vertex="1">
          <mxGeometry x="109.53718514219382" y="398.0019075496075" width="477.2356123041207" height="136.30686281077934" as="geometry" />
        </mxCell>
        <mxCell id="6K3tUPXFN7NIQfRX_CUn-74" value="&lt;font style=&quot;font-size: 30px;&quot;&gt;Заполнение параметров в конфиг файле&amp;nbsp;&lt;/font&gt;" style="rounded=0;whiteSpace=wrap;html=1;fontFamily=isocpeur;fontStyle=2" parent="WIyWlLk6GJQsqaUBKTNV-1" vertex="1">
          <mxGeometry x="667" y="416" width="409" height="101.48" as="geometry" />
        </mxCell>
        <mxCell id="6K3tUPXFN7NIQfRX_CUn-99" value="" style="edgeStyle=orthogonalEdgeStyle;rounded=0;orthogonalLoop=1;jettySize=auto;html=1;strokeColor=default;strokeWidth=2;align=center;verticalAlign=middle;fontFamily=isocpeur;fontSize=12;fontColor=default;labelBackgroundColor=default;endArrow=classic;fontStyle=2" parent="WIyWlLk6GJQsqaUBKTNV-1" source="6K3tUPXFN7NIQfRX_CUn-77" target="6K3tUPXFN7NIQfRX_CUn-78" edge="1">
          <mxGeometry relative="1" as="geometry" />
        </mxCell>
        <mxCell id="6K3tUPXFN7NIQfRX_CUn-77" value="&lt;font style=&quot;font-size: 30px;&quot;&gt;Добавление уникального элемента страницы&lt;/font&gt;" style="shape=process;whiteSpace=wrap;html=1;backgroundOutline=1;rounded=0;strokeColor=default;align=center;verticalAlign=middle;fontFamily=isocpeur;fontSize=12;fontColor=default;fillColor=default;fontStyle=2" parent="WIyWlLk6GJQsqaUBKTNV-1" vertex="1">
          <mxGeometry x="111.34966261808367" y="722.9992334662066" width="478.16464237516874" height="106.45838136279532" as="geometry" />
        </mxCell>
        <mxCell id="6K3tUPXFN7NIQfRX_CUn-100" value="" style="edgeStyle=orthogonalEdgeStyle;rounded=0;orthogonalLoop=1;jettySize=auto;html=1;strokeColor=default;strokeWidth=2;align=center;verticalAlign=middle;fontFamily=isocpeur;fontSize=12;fontColor=default;labelBackgroundColor=default;endArrow=classic;fontStyle=2" parent="WIyWlLk6GJQsqaUBKTNV-1" source="6K3tUPXFN7NIQfRX_CUn-78" target="6K3tUPXFN7NIQfRX_CUn-81" edge="1">
          <mxGeometry relative="1" as="geometry" />
        </mxCell>
        <mxCell id="6K3tUPXFN7NIQfRX_CUn-104" value="&lt;font style=&quot;font-size: 30px;&quot;&gt;Да&lt;/font&gt;" style="edgeLabel;html=1;align=center;verticalAlign=middle;resizable=0;points=[];rounded=0;strokeColor=default;fontFamily=isocpeur;fontSize=12;fontColor=default;labelBackgroundColor=default;fillColor=default;fontStyle=2" parent="6K3tUPXFN7NIQfRX_CUn-100" vertex="1" connectable="0">
          <mxGeometry x="-0.1188" y="1" relative="1" as="geometry">
            <mxPoint x="30" y="-4" as="offset" />
          </mxGeometry>
        </mxCell>
        <mxCell id="6K3tUPXFN7NIQfRX_CUn-78" value="&lt;div style=&quot;&quot;&gt;&lt;span style=&quot;background-color: rgb(255, 255, 255);&quot;&gt;&lt;font style=&quot;font-size: 20px;&quot;&gt;Добавить ещё один элемент для симуляции?&lt;/font&gt;&lt;/span&gt;&lt;br&gt;&lt;/div&gt;" style="rhombus;whiteSpace=wrap;html=1;rounded=0;strokeColor=default;align=center;verticalAlign=middle;fontFamily=isocpeur;fontSize=12;fontColor=default;fillColor=default;fontStyle=2" parent="WIyWlLk6GJQsqaUBKTNV-1" vertex="1">
          <mxGeometry x="110.75" y="878.0037236642556" width="477.2361673414304" height="134.47374487932038" as="geometry" />
        </mxCell>
        <mxCell id="6K3tUPXFN7NIQfRX_CUn-101" value="" style="edgeStyle=orthogonalEdgeStyle;rounded=0;orthogonalLoop=1;jettySize=auto;html=1;strokeColor=default;strokeWidth=2;align=center;verticalAlign=middle;fontFamily=isocpeur;fontSize=12;fontColor=default;labelBackgroundColor=default;endArrow=classic;fontStyle=2" parent="WIyWlLk6GJQsqaUBKTNV-1" source="6K3tUPXFN7NIQfRX_CUn-81" target="6K3tUPXFN7NIQfRX_CUn-83" edge="1">
          <mxGeometry relative="1" as="geometry" />
        </mxCell>
        <mxCell id="6K3tUPXFN7NIQfRX_CUn-81" value="&lt;font style=&quot;font-size: 30px;&quot;&gt;Выбор элемента для симуляции действия&lt;/font&gt;" style="rounded=0;whiteSpace=wrap;html=1;fontFamily=isocpeur;fontStyle=2" parent="WIyWlLk6GJQsqaUBKTNV-1" vertex="1">
          <mxGeometry x="111.43633778293675" y="1067.9982490806258" width="474.3726059199072" height="101.4780936063837" as="geometry" />
        </mxCell>
        <mxCell id="6K3tUPXFN7NIQfRX_CUn-83" value="&lt;font style=&quot;font-size: 34px;&quot;&gt;1&lt;/font&gt;" style="ellipse;whiteSpace=wrap;html=1;aspect=fixed;rounded=0;strokeColor=default;align=center;verticalAlign=middle;fontFamily=isocpeur;fontSize=12;fontColor=default;fillColor=default;fontStyle=2" parent="WIyWlLk6GJQsqaUBKTNV-1" vertex="1">
          <mxGeometry x="301.35300638421353" y="1212.0006067311526" width="93.59066883969416" height="93.59066883969416" as="geometry" />
        </mxCell>
        <mxCell id="6K3tUPXFN7NIQfRX_CUn-84" value="&lt;font style=&quot;font-size: 30px;&quot;&gt;Конец в роли &quot;Пользователь&quot;&lt;/font&gt;" style="rounded=0;whiteSpace=wrap;html=1;fontFamily=isocpeur;fontStyle=2" parent="WIyWlLk6GJQsqaUBKTNV-1" vertex="1">
          <mxGeometry x="109.54050997734079" y="1356.002127706809" width="470.736842105263" height="101.47787229319084" as="geometry" />
        </mxCell>
        <mxCell id="6K3tUPXFN7NIQfRX_CUn-92" value="" style="endArrow=classic;html=1;rounded=0;strokeColor=default;strokeWidth=2;align=center;verticalAlign=middle;fontFamily=isocpeur;fontSize=12;fontColor=default;labelBackgroundColor=default;edgeStyle=orthogonalEdgeStyle;exitX=0.5;exitY=1;exitDx=0;exitDy=0;entryX=0.5;entryY=0;entryDx=0;entryDy=0;fontStyle=2" parent="WIyWlLk6GJQsqaUBKTNV-1" source="6K3tUPXFN7NIQfRX_CUn-70" target="6K3tUPXFN7NIQfRX_CUn-72" edge="1">
          <mxGeometry width="50" height="50" relative="1" as="geometry">
            <mxPoint x="386" y="390" as="sourcePoint" />
            <mxPoint x="436" y="340" as="targetPoint" />
          </mxGeometry>
        </mxCell>
        <mxCell id="6K3tUPXFN7NIQfRX_CUn-93" value="" style="endArrow=classic;html=1;rounded=0;strokeColor=default;strokeWidth=2;align=center;verticalAlign=middle;fontFamily=isocpeur;fontSize=12;fontColor=default;labelBackgroundColor=default;edgeStyle=orthogonalEdgeStyle;exitX=0.5;exitY=1;exitDx=0;exitDy=0;entryX=0.5;entryY=0;entryDx=0;entryDy=0;fontStyle=2" parent="WIyWlLk6GJQsqaUBKTNV-1" source="6K3tUPXFN7NIQfRX_CUn-72" target="6K3tUPXFN7NIQfRX_CUn-71" edge="1">
          <mxGeometry width="50" height="50" relative="1" as="geometry">
            <mxPoint x="358" y="380" as="sourcePoint" />
            <mxPoint x="358" y="408" as="targetPoint" />
          </mxGeometry>
        </mxCell>
        <mxCell id="6K3tUPXFN7NIQfRX_CUn-96" value="&lt;font style=&quot;font-size: 30px;&quot;&gt;Нет&lt;/font&gt;" style="edgeLabel;html=1;align=center;verticalAlign=middle;resizable=0;points=[];rounded=0;strokeColor=default;fontFamily=isocpeur;fontSize=12;fontColor=default;labelBackgroundColor=default;fillColor=default;fontStyle=2" parent="6K3tUPXFN7NIQfRX_CUn-93" vertex="1" connectable="0">
          <mxGeometry x="0.0206" relative="1" as="geometry">
            <mxPoint x="-41" y="-8" as="offset" />
          </mxGeometry>
        </mxCell>
        <mxCell id="6K3tUPXFN7NIQfRX_CUn-94" value="" style="endArrow=classic;html=1;rounded=0;strokeColor=default;strokeWidth=2;align=center;verticalAlign=middle;fontFamily=isocpeur;fontSize=12;fontColor=default;labelBackgroundColor=default;edgeStyle=orthogonalEdgeStyle;exitX=1;exitY=0.5;exitDx=0;exitDy=0;entryX=0;entryY=0.5;entryDx=0;entryDy=0;fontStyle=2" parent="WIyWlLk6GJQsqaUBKTNV-1" source="6K3tUPXFN7NIQfRX_CUn-72" target="6K3tUPXFN7NIQfRX_CUn-74" edge="1">
          <mxGeometry width="50" height="50" relative="1" as="geometry">
            <mxPoint x="603" y="586" as="sourcePoint" />
            <mxPoint x="653" y="536" as="targetPoint" />
          </mxGeometry>
        </mxCell>
        <mxCell id="6K3tUPXFN7NIQfRX_CUn-95" value="&lt;font style=&quot;font-size: 30px;&quot;&gt;Да&lt;/font&gt;" style="edgeLabel;html=1;align=center;verticalAlign=middle;resizable=0;points=[];rounded=0;strokeColor=default;fontFamily=isocpeur;fontSize=12;fontColor=default;labelBackgroundColor=default;fillColor=default;fontStyle=2" parent="6K3tUPXFN7NIQfRX_CUn-94" vertex="1" connectable="0">
          <mxGeometry x="-0.1586" y="2" relative="1" as="geometry">
            <mxPoint x="1" y="-22" as="offset" />
          </mxGeometry>
        </mxCell>
        <mxCell id="6K3tUPXFN7NIQfRX_CUn-97" value="" style="endArrow=classic;html=1;rounded=0;strokeColor=default;strokeWidth=2;align=center;verticalAlign=middle;fontFamily=isocpeur;fontSize=12;fontColor=default;labelBackgroundColor=default;edgeStyle=orthogonalEdgeStyle;exitX=0.5;exitY=1;exitDx=0;exitDy=0;fontStyle=2" parent="WIyWlLk6GJQsqaUBKTNV-1" source="6K3tUPXFN7NIQfRX_CUn-74" edge="1">
          <mxGeometry width="50" height="50" relative="1" as="geometry">
            <mxPoint x="811" y="610" as="sourcePoint" />
            <mxPoint x="350" y="553" as="targetPoint" />
            <Array as="points">
              <mxPoint x="872" y="542" />
              <mxPoint x="872" y="566" />
            </Array>
          </mxGeometry>
        </mxCell>
        <mxCell id="6K3tUPXFN7NIQfRX_CUn-102" value="" style="endArrow=classic;html=1;rounded=0;strokeColor=default;strokeWidth=2;align=center;verticalAlign=middle;fontFamily=isocpeur;fontSize=12;fontColor=default;labelBackgroundColor=default;edgeStyle=orthogonalEdgeStyle;exitX=1;exitY=0.5;exitDx=0;exitDy=0;entryX=1;entryY=0.5;entryDx=0;entryDy=0;fontStyle=2" parent="WIyWlLk6GJQsqaUBKTNV-1" source="6K3tUPXFN7NIQfRX_CUn-78" target="6K3tUPXFN7NIQfRX_CUn-84" edge="1">
          <mxGeometry width="50" height="50" relative="1" as="geometry">
            <mxPoint x="636" y="1031" as="sourcePoint" />
            <mxPoint x="686" y="981" as="targetPoint" />
            <Array as="points">
              <mxPoint x="670" y="945" />
              <mxPoint x="670" y="1407" />
            </Array>
          </mxGeometry>
        </mxCell>
        <mxCell id="6K3tUPXFN7NIQfRX_CUn-103" value="&lt;font style=&quot;font-size: 30px;&quot;&gt;Нет&lt;/font&gt;" style="edgeLabel;html=1;align=center;verticalAlign=middle;resizable=0;points=[];rounded=0;strokeColor=default;fontFamily=isocpeur;fontSize=12;fontColor=default;labelBackgroundColor=default;fillColor=default;fontStyle=2" parent="6K3tUPXFN7NIQfRX_CUn-102" vertex="1" connectable="0">
          <mxGeometry x="-0.1115" y="-5" relative="1" as="geometry">
            <mxPoint x="40" y="12" as="offset" />
          </mxGeometry>
        </mxCell>
        <mxCell id="6K3tUPXFN7NIQfRX_CUn-105" value="" style="endArrow=classic;html=1;rounded=0;strokeColor=default;strokeWidth=2;align=center;verticalAlign=middle;fontFamily=isocpeur;fontSize=12;fontColor=default;labelBackgroundColor=default;edgeStyle=orthogonalEdgeStyle;exitX=0;exitY=0.5;exitDx=0;exitDy=0;entryX=0;entryY=0.5;entryDx=0;entryDy=0;fontStyle=2" parent="WIyWlLk6GJQsqaUBKTNV-1" source="6K3tUPXFN7NIQfRX_CUn-83" target="6K3tUPXFN7NIQfRX_CUn-78" edge="1">
          <mxGeometry width="50" height="50" relative="1" as="geometry">
            <mxPoint x="170" y="1284" as="sourcePoint" />
            <mxPoint x="220" y="1234" as="targetPoint" />
            <Array as="points">
              <mxPoint x="43" y="1259" />
              <mxPoint x="43" y="945" />
            </Array>
          </mxGeometry>
        </mxCell>
        <mxCell id="6K3tUPXFN7NIQfRX_CUn-115" value="" style="edgeStyle=orthogonalEdgeStyle;rounded=0;orthogonalLoop=1;jettySize=auto;html=1;strokeColor=default;strokeWidth=2;align=center;verticalAlign=middle;fontFamily=isocpeur;fontSize=12;fontColor=default;labelBackgroundColor=default;endArrow=classic;fontStyle=2" parent="WIyWlLk6GJQsqaUBKTNV-1" source="6K3tUPXFN7NIQfRX_CUn-107" target="6K3tUPXFN7NIQfRX_CUn-109" edge="1">
          <mxGeometry relative="1" as="geometry" />
        </mxCell>
        <mxCell id="6K3tUPXFN7NIQfRX_CUn-107" value="&lt;font style=&quot;font-size: 34px;&quot;&gt;1&lt;/font&gt;" style="ellipse;whiteSpace=wrap;html=1;aspect=fixed;rounded=0;strokeColor=default;align=center;verticalAlign=middle;fontFamily=isocpeur;fontSize=12;fontColor=default;fillColor=default;fontStyle=2" parent="WIyWlLk6GJQsqaUBKTNV-1" vertex="1">
          <mxGeometry x="1076.7030063842133" y="1392.1706067311527" width="93.59066883969416" height="93.59066883969416" as="geometry" />
        </mxCell>
        <mxCell id="6K3tUPXFN7NIQfRX_CUn-108" value="&lt;font style=&quot;font-size: 34px;&quot;&gt;1&lt;/font&gt;" style="ellipse;whiteSpace=wrap;html=1;aspect=fixed;rounded=0;strokeColor=default;align=center;verticalAlign=middle;fontFamily=isocpeur;fontSize=12;fontColor=default;fillColor=default;fontStyle=2" parent="WIyWlLk6GJQsqaUBKTNV-1" vertex="1">
          <mxGeometry x="1022.0030063842137" y="3141.000606731153" width="93.59066883969416" height="93.59066883969416" as="geometry" />
        </mxCell>
        <mxCell id="6K3tUPXFN7NIQfRX_CUn-113" value="" style="edgeStyle=orthogonalEdgeStyle;rounded=0;orthogonalLoop=1;jettySize=auto;html=1;strokeColor=default;strokeWidth=2;align=center;verticalAlign=middle;fontFamily=isocpeur;fontSize=12;fontColor=default;labelBackgroundColor=default;endArrow=classic;fontStyle=2" parent="WIyWlLk6GJQsqaUBKTNV-1" source="6K3tUPXFN7NIQfRX_CUn-109" target="6K3tUPXFN7NIQfRX_CUn-112" edge="1">
          <mxGeometry relative="1" as="geometry" />
        </mxCell>
        <mxCell id="6K3tUPXFN7NIQfRX_CUn-109" value="&lt;span style=&quot;font-size: 30px;&quot;&gt;Заполнение пути (XPath) элемента&lt;/span&gt;" style="shape=process;whiteSpace=wrap;html=1;backgroundOutline=1;rounded=0;strokeColor=default;align=center;verticalAlign=middle;fontFamily=isocpeur;fontSize=12;fontColor=default;fillColor=default;fontStyle=2" parent="WIyWlLk6GJQsqaUBKTNV-1" vertex="1">
          <mxGeometry x="888.5966126855599" y="1542.1657811577384" width="469.8083670715251" height="106.45838136279532" as="geometry" />
        </mxCell>
        <mxCell id="6K3tUPXFN7NIQfRX_CUn-134" value="" style="edgeStyle=orthogonalEdgeStyle;rounded=0;orthogonalLoop=1;jettySize=auto;html=1;strokeColor=default;strokeWidth=2;align=center;verticalAlign=middle;fontFamily=isocpeur;fontSize=12;fontColor=default;labelBackgroundColor=default;endArrow=classic;fontStyle=2" parent="WIyWlLk6GJQsqaUBKTNV-1" source="6K3tUPXFN7NIQfRX_CUn-112" target="6K3tUPXFN7NIQfRX_CUn-121" edge="1">
          <mxGeometry relative="1" as="geometry" />
        </mxCell>
        <mxCell id="6K3tUPXFN7NIQfRX_CUn-112" value="&lt;div style=&quot;&quot;&gt;&lt;span style=&quot;background-color: rgb(255, 255, 255);&quot;&gt;&lt;font style=&quot;font-size: 24px;&quot;&gt;Выбор действия для симуляции&lt;/font&gt;&lt;/span&gt;&lt;br&gt;&lt;/div&gt;" style="rhombus;whiteSpace=wrap;html=1;rounded=0;strokeColor=default;align=center;verticalAlign=middle;fontFamily=isocpeur;fontSize=12;fontColor=default;fillColor=default;fontStyle=2" parent="WIyWlLk6GJQsqaUBKTNV-1" vertex="1">
          <mxGeometry x="887" y="1704.6200000000001" width="473" height="134.47" as="geometry" />
        </mxCell>
        <mxCell id="6K3tUPXFN7NIQfRX_CUn-117" value="&lt;font style=&quot;font-size: 30px;&quot;&gt;Получить состояние элемента&lt;/font&gt;" style="shape=process;whiteSpace=wrap;html=1;backgroundOutline=1;rounded=0;strokeColor=default;align=center;verticalAlign=middle;fontFamily=isocpeur;fontSize=12;fontColor=default;fillColor=default;fontStyle=2" parent="WIyWlLk6GJQsqaUBKTNV-1" vertex="1">
          <mxGeometry x="1833" y="1941" width="414" height="106.46" as="geometry" />
        </mxCell>
        <mxCell id="6K3tUPXFN7NIQfRX_CUn-148" value="" style="edgeStyle=orthogonalEdgeStyle;rounded=0;orthogonalLoop=1;jettySize=auto;html=1;strokeColor=default;strokeWidth=2;align=center;verticalAlign=middle;fontFamily=isocpeur;fontSize=12;fontColor=default;labelBackgroundColor=default;endArrow=classic;fontStyle=2" parent="WIyWlLk6GJQsqaUBKTNV-1" source="6K3tUPXFN7NIQfRX_CUn-118" target="6K3tUPXFN7NIQfRX_CUn-129" edge="1">
          <mxGeometry relative="1" as="geometry" />
        </mxCell>
        <mxCell id="6K3tUPXFN7NIQfRX_CUn-118" value="&lt;font style=&quot;font-size: 30px;&quot;&gt;Получить аттрибут элемента&lt;/font&gt;" style="shape=process;whiteSpace=wrap;html=1;backgroundOutline=1;rounded=0;strokeColor=default;align=center;verticalAlign=middle;fontFamily=isocpeur;fontSize=12;fontColor=default;fillColor=default;fontStyle=2" parent="WIyWlLk6GJQsqaUBKTNV-1" vertex="1">
          <mxGeometry x="1378" y="1941" width="415" height="106.46" as="geometry" />
        </mxCell>
        <mxCell id="6K3tUPXFN7NIQfRX_CUn-153" value="" style="edgeStyle=orthogonalEdgeStyle;rounded=0;orthogonalLoop=1;jettySize=auto;html=1;strokeColor=default;strokeWidth=2;align=center;verticalAlign=middle;fontFamily=isocpeur;fontSize=12;fontColor=default;labelBackgroundColor=default;endArrow=classic;fontStyle=2" parent="WIyWlLk6GJQsqaUBKTNV-1" source="6K3tUPXFN7NIQfRX_CUn-119" target="6K3tUPXFN7NIQfRX_CUn-152" edge="1">
          <mxGeometry relative="1" as="geometry" />
        </mxCell>
        <mxCell id="6K3tUPXFN7NIQfRX_CUn-119" value="&lt;font style=&quot;font-size: 30px;&quot;&gt;Ввести текст в элемент&lt;/font&gt;" style="shape=process;whiteSpace=wrap;html=1;backgroundOutline=1;rounded=0;strokeColor=default;align=center;verticalAlign=middle;fontFamily=isocpeur;fontSize=12;fontColor=default;fillColor=default;fontStyle=2" parent="WIyWlLk6GJQsqaUBKTNV-1" vertex="1">
          <mxGeometry x="479" y="1941" width="390" height="106.46" as="geometry" />
        </mxCell>
        <mxCell id="6K3tUPXFN7NIQfRX_CUn-147" value="" style="edgeStyle=orthogonalEdgeStyle;rounded=0;orthogonalLoop=1;jettySize=auto;html=1;strokeColor=default;strokeWidth=2;align=center;verticalAlign=middle;fontFamily=isocpeur;fontSize=12;fontColor=default;labelBackgroundColor=default;endArrow=classic;fontStyle=2" parent="WIyWlLk6GJQsqaUBKTNV-1" source="6K3tUPXFN7NIQfRX_CUn-121" target="6K3tUPXFN7NIQfRX_CUn-128" edge="1">
          <mxGeometry relative="1" as="geometry" />
        </mxCell>
        <mxCell id="6K3tUPXFN7NIQfRX_CUn-121" value="&lt;font style=&quot;font-size: 30px;&quot;&gt;Получить CSS значение элемента&lt;/font&gt;" style="shape=process;whiteSpace=wrap;html=1;backgroundOutline=1;rounded=0;strokeColor=default;align=center;verticalAlign=middle;fontFamily=isocpeur;fontSize=12;fontColor=default;fillColor=default;fontStyle=2" parent="WIyWlLk6GJQsqaUBKTNV-1" vertex="1">
          <mxGeometry x="916" y="1941" width="415" height="106.46" as="geometry" />
        </mxCell>
        <mxCell id="6K3tUPXFN7NIQfRX_CUn-155" value="" style="edgeStyle=orthogonalEdgeStyle;rounded=0;orthogonalLoop=1;jettySize=auto;html=1;strokeColor=default;strokeWidth=2;align=center;verticalAlign=middle;fontFamily=isocpeur;fontSize=12;fontColor=default;labelBackgroundColor=default;endArrow=classic;fontStyle=2" parent="WIyWlLk6GJQsqaUBKTNV-1" source="6K3tUPXFN7NIQfRX_CUn-122" target="6K3tUPXFN7NIQfRX_CUn-154" edge="1">
          <mxGeometry relative="1" as="geometry" />
        </mxCell>
        <mxCell id="6K3tUPXFN7NIQfRX_CUn-122" value="&lt;font style=&quot;font-size: 30px;&quot;&gt;Симулировать действие над элементом&lt;/font&gt;" style="shape=process;whiteSpace=wrap;html=1;backgroundOutline=1;rounded=0;strokeColor=default;align=center;verticalAlign=middle;fontFamily=isocpeur;fontSize=12;fontColor=default;fillColor=default;fontStyle=2" parent="WIyWlLk6GJQsqaUBKTNV-1" vertex="1">
          <mxGeometry x="59" y="1941" width="389" height="106.46" as="geometry" />
        </mxCell>
        <mxCell id="6K3tUPXFN7NIQfRX_CUn-124" value="&lt;div style=&quot;&quot;&gt;&lt;span style=&quot;background-color: rgb(255, 255, 255);&quot;&gt;&lt;font style=&quot;font-size: 24px;&quot;&gt;Выбор состояния&lt;/font&gt;&lt;/span&gt;&lt;br&gt;&lt;/div&gt;" style="rhombus;whiteSpace=wrap;html=1;rounded=0;strokeColor=default;align=center;verticalAlign=middle;fontFamily=isocpeur;fontSize=12;fontColor=default;fillColor=default;fontStyle=2" parent="WIyWlLk6GJQsqaUBKTNV-1" vertex="1">
          <mxGeometry x="1831" y="2106" width="416" height="106.73" as="geometry" />
        </mxCell>
        <mxCell id="6K3tUPXFN7NIQfRX_CUn-128" value="&lt;span style=&quot;font-size: 30px;&quot;&gt;Указать необходимое CSS значение&lt;/span&gt;" style="rounded=0;whiteSpace=wrap;html=1;fontFamily=isocpeur;fontStyle=2" parent="WIyWlLk6GJQsqaUBKTNV-1" vertex="1">
          <mxGeometry x="917.3100000000002" y="2106" width="412.38" height="106" as="geometry" />
        </mxCell>
        <mxCell id="6K3tUPXFN7NIQfRX_CUn-129" value="&lt;span style=&quot;font-size: 30px;&quot;&gt;Указать необходимый аттрибут&lt;/span&gt;" style="rounded=0;whiteSpace=wrap;html=1;fontFamily=isocpeur;fontStyle=2" parent="WIyWlLk6GJQsqaUBKTNV-1" vertex="1">
          <mxGeometry x="1379.3100000000002" y="2106" width="412.38" height="106" as="geometry" />
        </mxCell>
        <mxCell id="6K3tUPXFN7NIQfRX_CUn-131" value="&lt;span style=&quot;font-size: 30px;&quot;&gt;Выбор состояния &quot;Видимый&quot;&lt;/span&gt;" style="rounded=0;whiteSpace=wrap;html=1;fontFamily=isocpeur;fontStyle=2" parent="WIyWlLk6GJQsqaUBKTNV-1" vertex="1">
          <mxGeometry x="1517" y="2332" width="412.38" height="106" as="geometry" />
        </mxCell>
        <mxCell id="6K3tUPXFN7NIQfRX_CUn-132" value="&lt;span style=&quot;font-size: 30px;&quot;&gt;Выбор состояния &quot;Существует в вёрстке&quot;&lt;/span&gt;" style="rounded=0;whiteSpace=wrap;html=1;fontFamily=isocpeur;fontStyle=2" parent="WIyWlLk6GJQsqaUBKTNV-1" vertex="1">
          <mxGeometry x="1517" y="2469" width="412.38" height="106" as="geometry" />
        </mxCell>
        <mxCell id="6K3tUPXFN7NIQfRX_CUn-133" value="&lt;span style=&quot;font-size: 30px;&quot;&gt;Выбор состояния &quot;Активный&quot;&lt;/span&gt;" style="rounded=0;whiteSpace=wrap;html=1;fontFamily=isocpeur;fontStyle=2" parent="WIyWlLk6GJQsqaUBKTNV-1" vertex="1">
          <mxGeometry x="1517" y="2605" width="412.38" height="106" as="geometry" />
        </mxCell>
        <mxCell id="6K3tUPXFN7NIQfRX_CUn-135" value="" style="endArrow=classic;html=1;rounded=0;strokeColor=default;strokeWidth=2;align=center;verticalAlign=middle;fontFamily=isocpeur;fontSize=12;fontColor=default;labelBackgroundColor=default;edgeStyle=orthogonalEdgeStyle;entryX=0.5;entryY=0;entryDx=0;entryDy=0;fontStyle=2" parent="WIyWlLk6GJQsqaUBKTNV-1" target="6K3tUPXFN7NIQfRX_CUn-118" edge="1">
          <mxGeometry width="50" height="50" relative="1" as="geometry">
            <mxPoint x="1125" y="1882" as="sourcePoint" />
            <mxPoint x="1390" y="1861" as="targetPoint" />
          </mxGeometry>
        </mxCell>
        <mxCell id="6K3tUPXFN7NIQfRX_CUn-136" value="" style="endArrow=classic;html=1;rounded=0;strokeColor=default;strokeWidth=2;align=center;verticalAlign=middle;fontFamily=isocpeur;fontSize=12;fontColor=default;labelBackgroundColor=default;edgeStyle=orthogonalEdgeStyle;entryX=0.5;entryY=0;entryDx=0;entryDy=0;fontStyle=2" parent="WIyWlLk6GJQsqaUBKTNV-1" target="6K3tUPXFN7NIQfRX_CUn-117" edge="1">
          <mxGeometry width="50" height="50" relative="1" as="geometry">
            <mxPoint x="1124" y="1881" as="sourcePoint" />
            <mxPoint x="1842" y="1877" as="targetPoint" />
          </mxGeometry>
        </mxCell>
        <mxCell id="6K3tUPXFN7NIQfRX_CUn-137" value="" style="endArrow=classic;html=1;rounded=0;strokeColor=default;strokeWidth=2;align=center;verticalAlign=middle;fontFamily=isocpeur;fontSize=12;fontColor=default;labelBackgroundColor=default;edgeStyle=orthogonalEdgeStyle;entryX=0.5;entryY=0;entryDx=0;entryDy=0;fontStyle=2" parent="WIyWlLk6GJQsqaUBKTNV-1" edge="1">
          <mxGeometry width="50" height="50" relative="1" as="geometry">
            <mxPoint x="1121" y="1881" as="sourcePoint" />
            <mxPoint x="673.5" y="1940" as="targetPoint" />
          </mxGeometry>
        </mxCell>
        <mxCell id="6K3tUPXFN7NIQfRX_CUn-138" value="" style="endArrow=classic;html=1;rounded=0;strokeColor=default;strokeWidth=2;align=center;verticalAlign=middle;fontFamily=isocpeur;fontSize=12;fontColor=default;labelBackgroundColor=default;edgeStyle=orthogonalEdgeStyle;entryX=0.5;entryY=0;entryDx=0;entryDy=0;fontStyle=2" parent="WIyWlLk6GJQsqaUBKTNV-1" edge="1">
          <mxGeometry width="50" height="50" relative="1" as="geometry">
            <mxPoint x="1123" y="1881" as="sourcePoint" />
            <mxPoint x="253.5" y="1942" as="targetPoint" />
          </mxGeometry>
        </mxCell>
        <mxCell id="6K3tUPXFN7NIQfRX_CUn-139" value="" style="endArrow=classic;html=1;rounded=0;strokeColor=default;strokeWidth=2;align=center;verticalAlign=middle;fontFamily=isocpeur;fontSize=12;fontColor=default;labelBackgroundColor=default;edgeStyle=orthogonalEdgeStyle;exitX=0.5;exitY=1;exitDx=0;exitDy=0;entryX=0.5;entryY=0;entryDx=0;entryDy=0;fontStyle=2" parent="WIyWlLk6GJQsqaUBKTNV-1" source="6K3tUPXFN7NIQfRX_CUn-117" target="6K3tUPXFN7NIQfRX_CUn-124" edge="1">
          <mxGeometry width="50" height="50" relative="1" as="geometry">
            <mxPoint x="2126" y="2119" as="sourcePoint" />
            <mxPoint x="2176" y="2069" as="targetPoint" />
          </mxGeometry>
        </mxCell>
        <mxCell id="6K3tUPXFN7NIQfRX_CUn-140" value="" style="endArrow=classic;html=1;rounded=0;strokeColor=default;strokeWidth=2;align=center;verticalAlign=middle;fontFamily=isocpeur;fontSize=12;fontColor=default;labelBackgroundColor=default;edgeStyle=orthogonalEdgeStyle;exitX=0.5;exitY=1;exitDx=0;exitDy=0;entryX=1;entryY=0.5;entryDx=0;entryDy=0;fontStyle=2" parent="WIyWlLk6GJQsqaUBKTNV-1" source="6K3tUPXFN7NIQfRX_CUn-124" target="6K3tUPXFN7NIQfRX_CUn-133" edge="1">
          <mxGeometry width="50" height="50" relative="1" as="geometry">
            <mxPoint x="2015" y="2466" as="sourcePoint" />
            <mxPoint x="2065" y="2416" as="targetPoint" />
          </mxGeometry>
        </mxCell>
        <mxCell id="6K3tUPXFN7NIQfRX_CUn-141" value="" style="endArrow=classic;html=1;rounded=0;strokeColor=default;strokeWidth=2;align=center;verticalAlign=middle;fontFamily=isocpeur;fontSize=12;fontColor=default;labelBackgroundColor=default;edgeStyle=orthogonalEdgeStyle;entryX=1;entryY=0.5;entryDx=0;entryDy=0;fontStyle=2" parent="WIyWlLk6GJQsqaUBKTNV-1" target="6K3tUPXFN7NIQfRX_CUn-132" edge="1">
          <mxGeometry width="50" height="50" relative="1" as="geometry">
            <mxPoint x="2036" y="2521" as="sourcePoint" />
            <mxPoint x="1869" y="2488" as="targetPoint" />
          </mxGeometry>
        </mxCell>
        <mxCell id="6K3tUPXFN7NIQfRX_CUn-142" value="" style="endArrow=classic;html=1;rounded=0;strokeColor=default;strokeWidth=2;align=center;verticalAlign=middle;fontFamily=isocpeur;fontSize=12;fontColor=default;labelBackgroundColor=default;edgeStyle=orthogonalEdgeStyle;entryX=1;entryY=0.5;entryDx=0;entryDy=0;fontStyle=2" parent="WIyWlLk6GJQsqaUBKTNV-1" target="6K3tUPXFN7NIQfRX_CUn-131" edge="1">
          <mxGeometry width="50" height="50" relative="1" as="geometry">
            <mxPoint x="2036" y="2384.21" as="sourcePoint" />
            <mxPoint x="1793" y="2385.21" as="targetPoint" />
          </mxGeometry>
        </mxCell>
        <mxCell id="6K3tUPXFN7NIQfRX_CUn-143" value="&lt;font style=&quot;font-size: 25px;&quot;&gt;Получение запрошенных данных&lt;/font&gt;" style="shape=parallelogram;perimeter=parallelogramPerimeter;whiteSpace=wrap;html=1;fixedSize=1;rounded=0;strokeColor=default;align=center;verticalAlign=middle;fontFamily=isocpeur;fontSize=12;fontColor=default;labelBackgroundColor=default;fillColor=default;fontStyle=2" parent="WIyWlLk6GJQsqaUBKTNV-1" vertex="1">
          <mxGeometry x="1081" y="2972" width="413" height="103.86" as="geometry" />
        </mxCell>
        <mxCell id="6K3tUPXFN7NIQfRX_CUn-145" value="" style="endArrow=classic;html=1;rounded=0;strokeColor=default;strokeWidth=2;align=center;verticalAlign=middle;fontFamily=isocpeur;fontSize=12;fontColor=default;labelBackgroundColor=default;edgeStyle=orthogonalEdgeStyle;exitX=0;exitY=0.5;exitDx=0;exitDy=0;fontStyle=2" parent="WIyWlLk6GJQsqaUBKTNV-1" source="6K3tUPXFN7NIQfRX_CUn-133" edge="1">
          <mxGeometry width="50" height="50" relative="1" as="geometry">
            <mxPoint x="1244" y="2688" as="sourcePoint" />
            <mxPoint x="1406" y="2526" as="targetPoint" />
          </mxGeometry>
        </mxCell>
        <mxCell id="6K3tUPXFN7NIQfRX_CUn-146" value="" style="endArrow=classic;html=1;rounded=0;strokeColor=default;strokeWidth=2;align=center;verticalAlign=middle;fontFamily=isocpeur;fontSize=12;fontColor=default;labelBackgroundColor=default;edgeStyle=orthogonalEdgeStyle;exitX=0;exitY=0.5;exitDx=0;exitDy=0;fontStyle=2" parent="WIyWlLk6GJQsqaUBKTNV-1" source="6K3tUPXFN7NIQfRX_CUn-131" edge="1">
          <mxGeometry width="50" height="50" relative="1" as="geometry">
            <mxPoint x="1327" y="2435" as="sourcePoint" />
            <mxPoint x="1406" y="2518" as="targetPoint" />
          </mxGeometry>
        </mxCell>
        <mxCell id="6K3tUPXFN7NIQfRX_CUn-152" value="&lt;span style=&quot;font-size: 30px;&quot;&gt;Указать текст для ввода&lt;/span&gt;" style="rounded=0;whiteSpace=wrap;html=1;fontFamily=isocpeur;fontStyle=2" parent="WIyWlLk6GJQsqaUBKTNV-1" vertex="1">
          <mxGeometry x="479" y="2104" width="389" height="108" as="geometry" />
        </mxCell>
        <mxCell id="6K3tUPXFN7NIQfRX_CUn-154" value="&lt;div style=&quot;&quot;&gt;&lt;span style=&quot;background-color: rgb(255, 255, 255);&quot;&gt;&lt;font style=&quot;font-size: 24px;&quot;&gt;Выбор действия&lt;/font&gt;&lt;/span&gt;&lt;br&gt;&lt;/div&gt;" style="rhombus;whiteSpace=wrap;html=1;rounded=0;strokeColor=default;align=center;verticalAlign=middle;fontFamily=isocpeur;fontSize=12;fontColor=default;fillColor=default;fontStyle=2" parent="WIyWlLk6GJQsqaUBKTNV-1" vertex="1">
          <mxGeometry x="45.5" y="2104.6400000000003" width="416" height="106.73" as="geometry" />
        </mxCell>
        <mxCell id="6K3tUPXFN7NIQfRX_CUn-172" style="edgeStyle=orthogonalEdgeStyle;rounded=0;orthogonalLoop=1;jettySize=auto;html=1;exitX=1;exitY=0.5;exitDx=0;exitDy=0;strokeColor=default;strokeWidth=2;align=center;verticalAlign=middle;fontFamily=isocpeur;fontSize=12;fontColor=default;labelBackgroundColor=default;endArrow=classic;fontStyle=2" parent="WIyWlLk6GJQsqaUBKTNV-1" source="6K3tUPXFN7NIQfRX_CUn-157" edge="1">
          <mxGeometry relative="1" as="geometry">
            <mxPoint x="874.4431610107422" y="2321.666666666667" as="targetPoint" />
          </mxGeometry>
        </mxCell>
        <mxCell id="6K3tUPXFN7NIQfRX_CUn-157" value="&lt;span style=&quot;font-size: 30px;&quot;&gt;Выбор действия &quot;Клик&quot;&lt;/span&gt;" style="rounded=0;whiteSpace=wrap;html=1;fontFamily=isocpeur;fontStyle=2" parent="WIyWlLk6GJQsqaUBKTNV-1" vertex="1">
          <mxGeometry x="302.35" y="2268" width="389" height="108" as="geometry" />
        </mxCell>
        <mxCell id="6K3tUPXFN7NIQfRX_CUn-173" style="edgeStyle=orthogonalEdgeStyle;rounded=0;orthogonalLoop=1;jettySize=auto;html=1;exitX=1;exitY=0.5;exitDx=0;exitDy=0;strokeColor=default;strokeWidth=2;align=center;verticalAlign=middle;fontFamily=isocpeur;fontSize=12;fontColor=default;labelBackgroundColor=default;endArrow=classic;fontStyle=2" parent="WIyWlLk6GJQsqaUBKTNV-1" source="6K3tUPXFN7NIQfRX_CUn-158" edge="1">
          <mxGeometry relative="1" as="geometry">
            <mxPoint x="871.4128672281904" y="2458.3333333333335" as="targetPoint" />
          </mxGeometry>
        </mxCell>
        <mxCell id="6K3tUPXFN7NIQfRX_CUn-158" value="&lt;span style=&quot;font-size: 30px;&quot;&gt;Выбор действия &quot;Подсветить элемент&quot;&lt;/span&gt;" style="rounded=0;whiteSpace=wrap;html=1;fontFamily=isocpeur;fontStyle=2" parent="WIyWlLk6GJQsqaUBKTNV-1" vertex="1">
          <mxGeometry x="302.35" y="2405" width="389" height="108" as="geometry" />
        </mxCell>
        <mxCell id="6K3tUPXFN7NIQfRX_CUn-174" style="edgeStyle=orthogonalEdgeStyle;rounded=0;orthogonalLoop=1;jettySize=auto;html=1;exitX=1;exitY=0.5;exitDx=0;exitDy=0;strokeColor=default;strokeWidth=2;align=center;verticalAlign=middle;fontFamily=isocpeur;fontSize=12;fontColor=default;labelBackgroundColor=default;endArrow=classic;fontStyle=2" parent="WIyWlLk6GJQsqaUBKTNV-1" source="6K3tUPXFN7NIQfRX_CUn-159" edge="1">
          <mxGeometry relative="1" as="geometry">
            <mxPoint x="871" y="2597" as="targetPoint" />
            <Array as="points">
              <mxPoint x="782" y="2596" />
            </Array>
          </mxGeometry>
        </mxCell>
        <mxCell id="6K3tUPXFN7NIQfRX_CUn-159" value="&lt;span style=&quot;font-size: 30px;&quot;&gt;Выбор действия &quot;Прокрутить экран до элемента&quot;&lt;/span&gt;" style="rounded=0;whiteSpace=wrap;html=1;fontFamily=isocpeur;fontStyle=2" parent="WIyWlLk6GJQsqaUBKTNV-1" vertex="1">
          <mxGeometry x="302.35" y="2542" width="389" height="108" as="geometry" />
        </mxCell>
        <mxCell id="6K3tUPXFN7NIQfRX_CUn-175" style="edgeStyle=orthogonalEdgeStyle;rounded=0;orthogonalLoop=1;jettySize=auto;html=1;exitX=1;exitY=0.5;exitDx=0;exitDy=0;strokeColor=default;strokeWidth=2;align=center;verticalAlign=middle;fontFamily=isocpeur;fontSize=12;fontColor=default;labelBackgroundColor=default;endArrow=classic;fontStyle=2" parent="WIyWlLk6GJQsqaUBKTNV-1" source="6K3tUPXFN7NIQfRX_CUn-160" edge="1">
          <mxGeometry relative="1" as="geometry">
            <mxPoint x="871" y="2732" as="targetPoint" />
          </mxGeometry>
        </mxCell>
        <mxCell id="6K3tUPXFN7NIQfRX_CUn-160" value="&lt;span style=&quot;font-size: 30px;&quot;&gt;Выбор действия &quot;Ожидать состояние элемента&quot;&lt;/span&gt;" style="rounded=0;whiteSpace=wrap;html=1;fontFamily=isocpeur;fontStyle=2" parent="WIyWlLk6GJQsqaUBKTNV-1" vertex="1">
          <mxGeometry x="302.35" y="2678" width="389" height="108" as="geometry" />
        </mxCell>
        <mxCell id="6K3tUPXFN7NIQfRX_CUn-176" style="edgeStyle=orthogonalEdgeStyle;rounded=0;orthogonalLoop=1;jettySize=auto;html=1;exitX=1;exitY=0.5;exitDx=0;exitDy=0;strokeColor=default;strokeWidth=2;align=center;verticalAlign=middle;fontFamily=isocpeur;fontSize=12;fontColor=default;labelBackgroundColor=default;endArrow=classic;fontStyle=2" parent="WIyWlLk6GJQsqaUBKTNV-1" source="6K3tUPXFN7NIQfRX_CUn-161" edge="1">
          <mxGeometry relative="1" as="geometry">
            <mxPoint x="872.9279632568359" y="2868.3333333333335" as="targetPoint" />
          </mxGeometry>
        </mxCell>
        <mxCell id="6K3tUPXFN7NIQfRX_CUn-161" value="&lt;span style=&quot;font-size: 30px;&quot;&gt;Выбор действия &quot;Удалить элемент&quot;&lt;/span&gt;" style="rounded=0;whiteSpace=wrap;html=1;fontFamily=isocpeur;fontStyle=2" parent="WIyWlLk6GJQsqaUBKTNV-1" vertex="1">
          <mxGeometry x="301.35" y="2815" width="389" height="108" as="geometry" />
        </mxCell>
        <mxCell id="6K3tUPXFN7NIQfRX_CUn-162" value="" style="endArrow=none;html=1;rounded=0;strokeColor=default;strokeWidth=2;align=center;verticalAlign=middle;fontFamily=isocpeur;fontSize=12;fontColor=default;labelBackgroundColor=default;edgeStyle=orthogonalEdgeStyle;entryX=0.5;entryY=1;entryDx=0;entryDy=0;fontStyle=2" parent="WIyWlLk6GJQsqaUBKTNV-1" target="6K3tUPXFN7NIQfRX_CUn-129" edge="1">
          <mxGeometry width="50" height="50" relative="1" as="geometry">
            <mxPoint x="1285" y="2522" as="sourcePoint" />
            <mxPoint x="1572" y="2240" as="targetPoint" />
            <Array as="points">
              <mxPoint x="1288" y="2522" />
              <mxPoint x="1288" y="2286" />
              <mxPoint x="1586" y="2286" />
            </Array>
          </mxGeometry>
        </mxCell>
        <mxCell id="6K3tUPXFN7NIQfRX_CUn-163" value="&lt;font style=&quot;font-size: 25px;&quot;&gt;Симуляция действия&lt;/font&gt;" style="shape=parallelogram;perimeter=parallelogramPerimeter;whiteSpace=wrap;html=1;fixedSize=1;rounded=0;strokeColor=default;align=center;verticalAlign=middle;fontFamily=isocpeur;fontSize=12;fontColor=default;labelBackgroundColor=default;fillColor=default;fontStyle=2" parent="WIyWlLk6GJQsqaUBKTNV-1" vertex="1">
          <mxGeometry x="668" y="2972" width="413" height="103.86" as="geometry" />
        </mxCell>
        <mxCell id="6K3tUPXFN7NIQfRX_CUn-164" value="" style="endArrow=classic;html=1;rounded=0;strokeColor=default;strokeWidth=2;align=center;verticalAlign=middle;fontFamily=isocpeur;fontSize=12;fontColor=default;labelBackgroundColor=default;edgeStyle=orthogonalEdgeStyle;exitX=0.5;exitY=1;exitDx=0;exitDy=0;entryX=0;entryY=0.5;entryDx=0;entryDy=0;fontStyle=2" parent="WIyWlLk6GJQsqaUBKTNV-1" source="6K3tUPXFN7NIQfRX_CUn-154" target="6K3tUPXFN7NIQfRX_CUn-159" edge="1">
          <mxGeometry width="50" height="50" relative="1" as="geometry">
            <mxPoint x="157" y="2408" as="sourcePoint" />
            <mxPoint x="207" y="2358" as="targetPoint" />
            <Array as="points">
              <mxPoint x="254" y="2596" />
            </Array>
          </mxGeometry>
        </mxCell>
        <mxCell id="6K3tUPXFN7NIQfRX_CUn-165" value="" style="endArrow=classic;html=1;rounded=0;strokeColor=default;strokeWidth=2;align=center;verticalAlign=middle;fontFamily=isocpeur;fontSize=12;fontColor=default;labelBackgroundColor=default;edgeStyle=orthogonalEdgeStyle;exitX=0.471;exitY=0.992;exitDx=0;exitDy=0;exitPerimeter=0;entryX=0.5;entryY=0;entryDx=0;entryDy=0;fontStyle=2" parent="WIyWlLk6GJQsqaUBKTNV-1" source="6K3tUPXFN7NIQfRX_CUn-163" target="6K3tUPXFN7NIQfRX_CUn-108" edge="1">
          <mxGeometry width="50" height="50" relative="1" as="geometry">
            <mxPoint x="951" y="3175" as="sourcePoint" />
            <mxPoint x="1001" y="3125" as="targetPoint" />
          </mxGeometry>
        </mxCell>
        <mxCell id="6K3tUPXFN7NIQfRX_CUn-166" value="" style="endArrow=classic;html=1;rounded=0;strokeColor=default;strokeWidth=2;align=center;verticalAlign=middle;fontFamily=isocpeur;fontSize=12;fontColor=default;labelBackgroundColor=default;edgeStyle=orthogonalEdgeStyle;exitX=0.5;exitY=1;exitDx=0;exitDy=0;entryX=0.5;entryY=0;entryDx=0;entryDy=0;fontStyle=2" parent="WIyWlLk6GJQsqaUBKTNV-1" source="6K3tUPXFN7NIQfRX_CUn-143" target="6K3tUPXFN7NIQfRX_CUn-108" edge="1">
          <mxGeometry width="50" height="50" relative="1" as="geometry">
            <mxPoint x="1235" y="3178" as="sourcePoint" />
            <mxPoint x="1285" y="3128" as="targetPoint" />
          </mxGeometry>
        </mxCell>
        <mxCell id="6K3tUPXFN7NIQfRX_CUn-167" value="" style="endArrow=classic;html=1;rounded=0;strokeColor=default;strokeWidth=2;align=center;verticalAlign=middle;fontFamily=isocpeur;fontSize=12;fontColor=default;labelBackgroundColor=default;edgeStyle=orthogonalEdgeStyle;entryX=0;entryY=0.5;entryDx=0;entryDy=0;fontStyle=2" parent="WIyWlLk6GJQsqaUBKTNV-1" target="6K3tUPXFN7NIQfRX_CUn-157" edge="1">
          <mxGeometry width="50" height="50" relative="1" as="geometry">
            <mxPoint x="254" y="2322" as="sourcePoint" />
            <mxPoint x="248" y="2340" as="targetPoint" />
            <Array as="points">
              <mxPoint x="255" y="2322" />
            </Array>
          </mxGeometry>
        </mxCell>
        <mxCell id="6K3tUPXFN7NIQfRX_CUn-168" value="" style="endArrow=classic;html=1;rounded=0;strokeColor=default;strokeWidth=2;align=center;verticalAlign=middle;fontFamily=isocpeur;fontSize=12;fontColor=default;labelBackgroundColor=default;edgeStyle=orthogonalEdgeStyle;entryX=0;entryY=0.5;entryDx=0;entryDy=0;fontStyle=2" parent="WIyWlLk6GJQsqaUBKTNV-1" edge="1">
          <mxGeometry width="50" height="50" relative="1" as="geometry">
            <mxPoint x="254.35" y="2458.8" as="sourcePoint" />
            <mxPoint x="302.35" y="2458.8" as="targetPoint" />
            <Array as="points">
              <mxPoint x="255.35" y="2458.8" />
            </Array>
          </mxGeometry>
        </mxCell>
        <mxCell id="6K3tUPXFN7NIQfRX_CUn-169" value="" style="endArrow=classic;html=1;rounded=0;strokeColor=default;strokeWidth=2;align=center;verticalAlign=middle;fontFamily=isocpeur;fontSize=12;fontColor=default;labelBackgroundColor=default;edgeStyle=orthogonalEdgeStyle;exitX=0.5;exitY=1;exitDx=0;exitDy=0;entryX=0;entryY=0.5;entryDx=0;entryDy=0;fontStyle=2" parent="WIyWlLk6GJQsqaUBKTNV-1" source="6K3tUPXFN7NIQfRX_CUn-154" target="6K3tUPXFN7NIQfRX_CUn-160" edge="1">
          <mxGeometry width="50" height="50" relative="1" as="geometry">
            <mxPoint x="253" y="2756" as="sourcePoint" />
            <mxPoint x="303" y="2706" as="targetPoint" />
          </mxGeometry>
        </mxCell>
        <mxCell id="6K3tUPXFN7NIQfRX_CUn-170" value="" style="endArrow=classic;html=1;rounded=0;strokeColor=default;strokeWidth=2;align=center;verticalAlign=middle;fontFamily=isocpeur;fontSize=12;fontColor=default;labelBackgroundColor=default;edgeStyle=orthogonalEdgeStyle;exitX=0.5;exitY=1;exitDx=0;exitDy=0;entryX=0;entryY=0.5;entryDx=0;entryDy=0;fontStyle=2" parent="WIyWlLk6GJQsqaUBKTNV-1" source="6K3tUPXFN7NIQfRX_CUn-154" target="6K3tUPXFN7NIQfRX_CUn-161" edge="1">
          <mxGeometry width="50" height="50" relative="1" as="geometry">
            <mxPoint x="153" y="2814" as="sourcePoint" />
            <mxPoint x="203" y="2764" as="targetPoint" />
          </mxGeometry>
        </mxCell>
        <mxCell id="6K3tUPXFN7NIQfRX_CUn-171" value="" style="endArrow=classic;html=1;rounded=0;strokeColor=default;strokeWidth=2;align=center;verticalAlign=middle;fontFamily=isocpeur;fontSize=12;fontColor=default;labelBackgroundColor=default;edgeStyle=orthogonalEdgeStyle;exitX=0.5;exitY=1;exitDx=0;exitDy=0;entryX=0.5;entryY=0;entryDx=0;entryDy=0;fontStyle=2" parent="WIyWlLk6GJQsqaUBKTNV-1" source="6K3tUPXFN7NIQfRX_CUn-152" target="6K3tUPXFN7NIQfRX_CUn-163" edge="1">
          <mxGeometry width="50" height="50" relative="1" as="geometry">
            <mxPoint x="851" y="2367" as="sourcePoint" />
            <mxPoint x="901" y="2317" as="targetPoint" />
            <Array as="points">
              <mxPoint x="674" y="2241" />
              <mxPoint x="875" y="2241" />
            </Array>
          </mxGeometry>
        </mxCell>
        <mxCell id="6K3tUPXFN7NIQfRX_CUn-209" value="" style="edgeStyle=orthogonalEdgeStyle;rounded=0;orthogonalLoop=1;jettySize=auto;html=1;strokeColor=default;strokeWidth=2;align=center;verticalAlign=middle;fontFamily=isocpeur;fontSize=12;fontColor=default;labelBackgroundColor=default;endArrow=classic;fontStyle=2" parent="WIyWlLk6GJQsqaUBKTNV-1" source="6K3tUPXFN7NIQfRX_CUn-196" target="6K3tUPXFN7NIQfRX_CUn-197" edge="1">
          <mxGeometry relative="1" as="geometry" />
        </mxCell>
        <mxCell id="6K3tUPXFN7NIQfRX_CUn-196" value="&lt;font style=&quot;font-size: 30px;&quot;&gt;Начало в роли &quot;Контрибьютор&quot;&lt;/font&gt;" style="rounded=0;whiteSpace=wrap;html=1;fontFamily=isocpeur;fontStyle=2" parent="WIyWlLk6GJQsqaUBKTNV-1" vertex="1">
          <mxGeometry x="1231.9996626180837" y="134" width="470.736842105263" height="101.47787229319084" as="geometry" />
        </mxCell>
        <mxCell id="6K3tUPXFN7NIQfRX_CUn-208" value="" style="edgeStyle=orthogonalEdgeStyle;rounded=0;orthogonalLoop=1;jettySize=auto;html=1;strokeColor=default;strokeWidth=2;align=center;verticalAlign=middle;fontFamily=isocpeur;fontSize=12;fontColor=default;labelBackgroundColor=default;endArrow=classic;fontStyle=2" parent="WIyWlLk6GJQsqaUBKTNV-1" source="6K3tUPXFN7NIQfRX_CUn-197" target="6K3tUPXFN7NIQfRX_CUn-199" edge="1">
          <mxGeometry relative="1" as="geometry" />
        </mxCell>
        <mxCell id="6K3tUPXFN7NIQfRX_CUn-197" value="&lt;font style=&quot;font-size: 30px;&quot;&gt;Клонировать репозиторий с исходным кодом фреймворка&lt;/font&gt;" style="rounded=0;whiteSpace=wrap;html=1;fontFamily=isocpeur;fontStyle=2" parent="WIyWlLk6GJQsqaUBKTNV-1" vertex="1">
          <mxGeometry x="1232.5596626180836" y="279.9808886747676" width="471.6653171390015" height="101.47787229319084" as="geometry" />
        </mxCell>
        <mxCell id="6K3tUPXFN7NIQfRX_CUn-207" value="" style="edgeStyle=orthogonalEdgeStyle;rounded=0;orthogonalLoop=1;jettySize=auto;html=1;strokeColor=default;strokeWidth=2;align=center;verticalAlign=middle;fontFamily=isocpeur;fontSize=12;fontColor=default;labelBackgroundColor=default;endArrow=classic;fontStyle=2" parent="WIyWlLk6GJQsqaUBKTNV-1" source="6K3tUPXFN7NIQfRX_CUn-199" target="6K3tUPXFN7NIQfRX_CUn-200" edge="1">
          <mxGeometry relative="1" as="geometry" />
        </mxCell>
        <mxCell id="6K3tUPXFN7NIQfRX_CUn-199" value="&lt;span style=&quot;font-size: 30px;&quot;&gt;Внести необходимых изменений в код фреймворка&lt;/span&gt;" style="shape=process;whiteSpace=wrap;html=1;backgroundOutline=1;rounded=0;strokeColor=default;align=center;verticalAlign=middle;fontFamily=isocpeur;fontSize=12;fontColor=default;fillColor=default;fontStyle=2" parent="WIyWlLk6GJQsqaUBKTNV-1" vertex="1">
          <mxGeometry x="1233.48661268556" y="417.9957811577383" width="469.8083670715251" height="106.45838136279532" as="geometry" />
        </mxCell>
        <mxCell id="6K3tUPXFN7NIQfRX_CUn-206" value="" style="edgeStyle=orthogonalEdgeStyle;rounded=0;orthogonalLoop=1;jettySize=auto;html=1;strokeColor=default;strokeWidth=2;align=center;verticalAlign=middle;fontFamily=isocpeur;fontSize=12;fontColor=default;labelBackgroundColor=default;endArrow=classic;fontStyle=2" parent="WIyWlLk6GJQsqaUBKTNV-1" source="6K3tUPXFN7NIQfRX_CUn-200" target="6K3tUPXFN7NIQfRX_CUn-201" edge="1">
          <mxGeometry relative="1" as="geometry" />
        </mxCell>
        <mxCell id="6K3tUPXFN7NIQfRX_CUn-200" value="&lt;font style=&quot;font-size: 30px;&quot;&gt;Создать Pull Request для применения изменений&lt;/font&gt;" style="rounded=0;whiteSpace=wrap;html=1;fontFamily=isocpeur;fontStyle=2" parent="WIyWlLk6GJQsqaUBKTNV-1" vertex="1">
          <mxGeometry x="1232.4896626180837" y="568.0008886747676" width="471.6653171390015" height="101.47787229319084" as="geometry" />
        </mxCell>
        <mxCell id="6K3tUPXFN7NIQfRX_CUn-205" value="" style="edgeStyle=orthogonalEdgeStyle;rounded=0;orthogonalLoop=1;jettySize=auto;html=1;strokeColor=default;strokeWidth=2;align=center;verticalAlign=middle;fontFamily=isocpeur;fontSize=12;fontColor=default;labelBackgroundColor=default;endArrow=classic;fontStyle=2" parent="WIyWlLk6GJQsqaUBKTNV-1" source="6K3tUPXFN7NIQfRX_CUn-201" target="6K3tUPXFN7NIQfRX_CUn-202" edge="1">
          <mxGeometry relative="1" as="geometry" />
        </mxCell>
        <mxCell id="6K3tUPXFN7NIQfRX_CUn-201" value="&lt;font style=&quot;font-size: 30px;&quot;&gt;Произвести слияние изменений в ветку проекта&lt;/font&gt;" style="rounded=0;whiteSpace=wrap;html=1;fontFamily=isocpeur;fontStyle=2" parent="WIyWlLk6GJQsqaUBKTNV-1" vertex="1">
          <mxGeometry x="1232.7796626180836" y="705.0008886747676" width="471.6653171390015" height="101.47787229319084" as="geometry" />
        </mxCell>
        <mxCell id="6K3tUPXFN7NIQfRX_CUn-204" value="" style="edgeStyle=orthogonalEdgeStyle;rounded=0;orthogonalLoop=1;jettySize=auto;html=1;strokeColor=default;strokeWidth=2;align=center;verticalAlign=middle;fontFamily=isocpeur;fontSize=12;fontColor=default;labelBackgroundColor=default;endArrow=classic;fontStyle=2" parent="WIyWlLk6GJQsqaUBKTNV-1" source="6K3tUPXFN7NIQfRX_CUn-202" edge="1">
          <mxGeometry relative="1" as="geometry">
            <mxPoint x="1789.5566126855597" y="939.25" as="targetPoint" />
          </mxGeometry>
        </mxCell>
        <mxCell id="6K3tUPXFN7NIQfRX_CUn-210" value="&lt;font style=&quot;font-size: 30px;&quot;&gt;Да&lt;/font&gt;" style="edgeLabel;html=1;align=center;verticalAlign=middle;resizable=0;points=[];rounded=0;strokeColor=default;fontFamily=isocpeur;fontSize=12;fontColor=default;labelBackgroundColor=default;fillColor=default;fontStyle=2" parent="6K3tUPXFN7NIQfRX_CUn-204" vertex="1" connectable="0">
          <mxGeometry x="0.1938" y="3" relative="1" as="geometry">
            <mxPoint x="-11" y="-20" as="offset" />
          </mxGeometry>
        </mxCell>
        <mxCell id="6K3tUPXFN7NIQfRX_CUn-202" value="&lt;div style=&quot;&quot;&gt;&lt;font style=&quot;font-size: 26px;&quot;&gt;Произошёл конфликт слияния?&lt;/font&gt;&lt;/div&gt;" style="rhombus;whiteSpace=wrap;html=1;rounded=0;strokeColor=default;align=center;verticalAlign=middle;fontFamily=isocpeur;fontSize=12;fontColor=default;fillColor=default;fontStyle=2" parent="WIyWlLk6GJQsqaUBKTNV-1" vertex="1">
          <mxGeometry x="1229.9971851421938" y="872.0019075496075" width="477.2356123041207" height="136.30686281077934" as="geometry" />
        </mxCell>
        <mxCell id="6K3tUPXFN7NIQfRX_CUn-203" value="&lt;span style=&quot;font-size: 30px;&quot;&gt;Добавить Code-review на конфликтующий код&lt;/span&gt;" style="shape=process;whiteSpace=wrap;html=1;backgroundOutline=1;rounded=0;strokeColor=default;align=center;verticalAlign=middle;fontFamily=isocpeur;fontSize=12;fontColor=default;fillColor=default;fontStyle=2" parent="WIyWlLk6GJQsqaUBKTNV-1" vertex="1">
          <mxGeometry x="1785.9966126855602" y="882.9957811577384" width="469.8083670715251" height="106.45838136279532" as="geometry" />
        </mxCell>
        <mxCell id="6K3tUPXFN7NIQfRX_CUn-211" value="&lt;font style=&quot;font-size: 30px;&quot;&gt;Конец в роли &quot;Контрибьютор&quot;&lt;/font&gt;" style="rounded=0;whiteSpace=wrap;html=1;fontFamily=isocpeur;fontStyle=2" parent="WIyWlLk6GJQsqaUBKTNV-1" vertex="1">
          <mxGeometry x="1233.7096626180837" y="1137" width="470.736842105263" height="101.47787229319084" as="geometry" />
        </mxCell>
        <mxCell id="6K3tUPXFN7NIQfRX_CUn-213" value="" style="endArrow=classic;html=1;rounded=0;strokeColor=default;strokeWidth=2;align=center;verticalAlign=middle;fontFamily=isocpeur;fontSize=12;fontColor=default;labelBackgroundColor=default;edgeStyle=orthogonalEdgeStyle;exitX=0.5;exitY=1;exitDx=0;exitDy=0;entryX=0.5;entryY=0;entryDx=0;entryDy=0;fontStyle=2" parent="WIyWlLk6GJQsqaUBKTNV-1" source="6K3tUPXFN7NIQfRX_CUn-202" target="6K3tUPXFN7NIQfRX_CUn-211" edge="1">
          <mxGeometry width="50" height="50" relative="1" as="geometry">
            <mxPoint x="1606.56" y="1108" as="sourcePoint" />
            <mxPoint x="1656.56" y="1058" as="targetPoint" />
          </mxGeometry>
        </mxCell>
        <mxCell id="6K3tUPXFN7NIQfRX_CUn-214" value="&lt;font style=&quot;font-size: 30px;&quot;&gt;Нет&lt;/font&gt;" style="edgeLabel;html=1;align=center;verticalAlign=middle;resizable=0;points=[];rounded=0;strokeColor=default;fontFamily=isocpeur;fontSize=12;fontColor=default;labelBackgroundColor=default;fillColor=default;fontStyle=2" parent="6K3tUPXFN7NIQfRX_CUn-213" vertex="1" connectable="0">
          <mxGeometry x="-0.2317" relative="1" as="geometry">
            <mxPoint x="-39" y="8" as="offset" />
          </mxGeometry>
        </mxCell>
        <mxCell id="6K3tUPXFN7NIQfRX_CUn-215" value="" style="endArrow=classic;html=1;rounded=0;strokeColor=default;strokeWidth=2;align=center;verticalAlign=middle;fontFamily=isocpeur;fontSize=12;fontColor=default;labelBackgroundColor=default;edgeStyle=orthogonalEdgeStyle;exitX=0.5;exitY=1;exitDx=0;exitDy=0;fontStyle=2" parent="WIyWlLk6GJQsqaUBKTNV-1" edge="1">
          <mxGeometry width="50" height="50" relative="1" as="geometry">
            <mxPoint x="2024.4607962213227" y="992.3841625205332" as="sourcePoint" />
            <mxPoint x="1469.56" y="1068" as="targetPoint" />
            <Array as="points">
              <mxPoint x="2024.56" y="1068" />
            </Array>
          </mxGeometry>
        </mxCell>
        <mxCell id="4juMVOE3TSHuapweOOKK-4" value="" style="endArrow=classic;html=1;rounded=0;strokeColor=default;strokeWidth=2;align=center;verticalAlign=middle;fontFamily=isocpeur;fontSize=12;fontColor=default;labelBackgroundColor=default;edgeStyle=orthogonalEdgeStyle;exitX=0;exitY=0.5;exitDx=0;exitDy=0;fontStyle=2;entryX=0.5;entryY=0;entryDx=0;entryDy=0;" edge="1" parent="WIyWlLk6GJQsqaUBKTNV-1" source="6K3tUPXFN7NIQfRX_CUn-132" target="6K3tUPXFN7NIQfRX_CUn-143">
          <mxGeometry width="50" height="50" relative="1" as="geometry">
            <mxPoint x="1479" y="2791" as="sourcePoint" />
            <mxPoint x="1368" y="2659" as="targetPoint" />
          </mxGeometry>
        </mxCell>
        <mxCell id="4juMVOE3TSHuapweOOKK-5" value="" style="endArrow=none;html=1;rounded=0;strokeColor=default;strokeWidth=2;align=center;verticalAlign=middle;fontFamily=isocpeur;fontSize=12;fontColor=default;labelBackgroundColor=default;edgeStyle=orthogonalEdgeStyle;exitX=0.5;exitY=1;exitDx=0;exitDy=0;fontStyle=2;endFill=0;" edge="1" parent="WIyWlLk6GJQsqaUBKTNV-1" source="6K3tUPXFN7NIQfRX_CUn-128">
          <mxGeometry width="50" height="50" relative="1" as="geometry">
            <mxPoint x="1331" y="2321" as="sourcePoint" />
            <mxPoint x="1291" y="2522" as="targetPoint" />
            <Array as="points">
              <mxPoint x="1124" y="2522" />
              <mxPoint x="1288" y="2522" />
            </Array>
          </mxGeometry>
        </mxCell>
      </root>
    </mxGraphModel>
  </diagram>
</mxfile>
